<svg width="168" height="130" viewBox="0 0 168 130" fill="none" xmlns="http://www.w3.org/2000/svg">
<path opacity="0.5" d="M4.42039 16.14C3.37039 16.14 2.50239 15.888 1.81639 15.384C1.13039 14.88 0.710391 14.152 0.570391 13.2H2.32039C2.43239 13.648 2.67039 13.998 3.03439 14.236C3.39839 14.474 3.86039 14.6 4.42039 14.6C5.12039 14.6 5.63839 14.474 5.96039 14.208C6.28239 13.956 6.45039 13.62 6.45039 13.2C6.45039 12.934 6.36639 12.71 6.21239 12.542C6.05839 12.388 5.84839 12.248 5.59639 12.15C5.33039 12.052 5.03639 11.954 4.71439 11.884C4.37839 11.814 4.04239 11.744 3.69239 11.66C3.34239 11.576 2.99239 11.478 2.67039 11.352C2.33439 11.226 2.04039 11.058 1.78839 10.848C1.52239 10.638 1.31239 10.386 1.15839 10.064C1.00439 9.742 0.920391 9.35 0.920391 8.86C0.920391 8.426 1.00439 8.034 1.17239 7.684C1.34039 7.334 1.57839 7.04 1.88639 6.802C2.19439 6.564 2.55839 6.368 2.99239 6.242C3.42639 6.116 3.90239 6.06 4.42039 6.06C5.49839 6.06 6.35239 6.298 6.95439 6.788C7.55639 7.278 7.92039 7.922 8.06039 8.72H6.31039C6.21239 8.37 6.00239 8.09 5.69439 7.894C5.37239 7.698 4.95239 7.6 4.42039 7.6C3.81839 7.6 3.38439 7.726 3.10439 7.964C2.81039 8.202 2.67039 8.51 2.67039 8.86C2.67039 9.238 2.81039 9.518 3.09039 9.7C3.35639 9.896 3.70639 10.05 4.12639 10.162C4.53239 10.288 4.98039 10.4 5.47039 10.498C5.96039 10.61 6.40839 10.764 6.82839 10.96C7.23439 11.156 7.58439 11.422 7.86439 11.772C8.13039 12.122 8.27039 12.598 8.27039 13.2C8.27039 13.606 8.18639 13.984 8.01839 14.334C7.83639 14.698 7.58439 15.006 7.26239 15.272C6.94039 15.538 6.53439 15.748 6.05839 15.902C5.58239 16.056 5.03639 16.14 4.42039 16.14ZM12.8797 16.14C12.3337 16.14 11.8437 16.056 11.4097 15.874C10.9757 15.706 10.5977 15.454 10.2897 15.132C9.98167 14.81 9.74367 14.404 9.57567 13.928C9.40767 13.452 9.32367 12.906 9.32367 12.29C9.32367 11.674 9.40767 11.128 9.57567 10.652C9.74367 10.176 9.98167 9.77 10.2897 9.448C10.5977 9.126 10.9617 8.874 11.3957 8.692C11.8297 8.524 12.3057 8.44 12.8237 8.44C13.3837 8.44 13.8877 8.538 14.3217 8.734C14.7557 8.93 15.1197 9.196 15.4137 9.518C15.7077 9.854 15.9457 10.246 16.0997 10.68C16.2537 11.128 16.3237 11.59 16.3237 12.08C16.3237 12.178 16.3237 12.276 16.3097 12.36C16.2957 12.444 16.2957 12.514 16.2817 12.584C16.2677 12.654 16.2677 12.724 16.2537 12.78H11.0037C11.0457 13.34 11.2277 13.788 11.5637 14.138C11.8857 14.488 12.3337 14.67 12.8937 14.67C13.2857 14.67 13.5937 14.586 13.8317 14.432C14.0557 14.278 14.2517 14.068 14.4337 13.83H16.1837C16.0857 14.152 15.9317 14.446 15.7497 14.726C15.5677 15.006 15.3297 15.244 15.0637 15.454C14.7977 15.664 14.4757 15.832 14.1117 15.958C13.7477 16.084 13.3417 16.14 12.8797 16.14ZM14.6437 11.52C14.5737 11.058 14.3777 10.68 14.0837 10.372C13.7757 10.064 13.3557 9.91 12.8237 9.91C12.3337 9.91 11.9277 10.05 11.6197 10.344C11.3117 10.638 11.1017 11.03 11.0037 11.52H14.6437ZM20.9448 16.14C20.4268 16.14 19.9508 16.056 19.5168 15.874C19.0828 15.706 18.7188 15.454 18.4108 15.132C18.1028 14.81 17.8648 14.404 17.6968 13.928C17.5288 13.452 17.4448 12.906 17.4448 12.29C17.4448 11.674 17.5288 11.128 17.6968 10.652C17.8648 10.176 18.1028 9.77 18.4108 9.448C18.7188 9.126 19.0828 8.874 19.5168 8.692C19.9508 8.524 20.4268 8.44 20.9448 8.44C21.4068 8.44 21.8128 8.51 22.1768 8.636C22.5408 8.762 22.8628 8.944 23.1428 9.168C23.4088 9.392 23.6468 9.644 23.8288 9.938C24.0108 10.232 24.1508 10.554 24.2348 10.89H22.6248C22.4428 10.568 22.2328 10.33 21.9668 10.162C21.7008 9.994 21.3648 9.91 20.9448 9.91C20.3848 9.91 19.9368 10.106 19.5868 10.512C19.2368 10.918 19.0548 11.52 19.0548 12.29C19.0548 13.06 19.2368 13.648 19.5868 14.054C19.9368 14.46 20.3848 14.67 20.9448 14.67C21.3648 14.67 21.7008 14.586 21.9668 14.418C22.2328 14.25 22.4428 14.012 22.6248 13.69H24.2348C24.1508 14.026 24.0108 14.334 23.8288 14.628C23.6468 14.922 23.4088 15.188 23.1428 15.412C22.8628 15.636 22.5408 15.818 22.1768 15.944C21.8128 16.07 21.4068 16.14 20.9448 16.14ZM28.2904 16.14C27.8844 16.14 27.5204 16.07 27.1844 15.916C26.8484 15.776 26.5684 15.58 26.3304 15.314C26.0924 15.048 25.8964 14.74 25.7704 14.362C25.6304 13.998 25.5604 13.592 25.5604 13.13V8.58H27.1704V12.99C27.1704 13.522 27.3104 13.928 27.6044 14.222C27.8844 14.516 28.2484 14.67 28.7104 14.67C28.9484 14.67 29.1724 14.628 29.3824 14.53C29.5784 14.446 29.7464 14.32 29.8864 14.166C30.0264 14.012 30.1384 13.83 30.2084 13.62C30.2784 13.41 30.3204 13.2 30.3204 12.962V8.58H31.9304V16H30.6004L30.3904 15.09H30.3204C30.1104 15.44 29.8164 15.706 29.4664 15.874C29.1024 16.056 28.7104 16.14 28.2904 16.14ZM33.7498 8.58H35.0798L35.2898 9.49H35.3598C35.5698 9.168 35.8358 8.944 36.1438 8.79C36.4378 8.65 36.7878 8.58 37.1798 8.58H38.0898V10.12H37.3198C36.7178 10.12 36.2418 10.288 35.8918 10.61C35.5418 10.932 35.3598 11.38 35.3598 11.94V16H33.7498V8.58ZM39.2049 8.58H40.8149V16H39.2049V8.58ZM40.0029 7.74C39.7089 7.74 39.4569 7.642 39.2749 7.46C39.0929 7.278 38.9949 7.04 38.9949 6.76C38.9949 6.48 39.0929 6.242 39.2749 6.06C39.4569 5.878 39.7089 5.78 40.0029 5.78C40.2969 5.78 40.5489 5.878 40.7449 6.06C40.9269 6.242 41.0249 6.48 41.0249 6.76C41.0249 7.04 40.9269 7.278 40.7449 7.46C40.5489 7.642 40.2969 7.74 40.0029 7.74ZM45.2966 16C44.6246 16 44.1066 15.818 43.7426 15.454C43.3786 15.104 43.1966 14.6 43.1966 13.97V10.05H42.0066V8.58H43.1966L43.4066 6.62H44.8066V8.58H46.6266V10.05H44.8066V13.76C44.8066 13.97 44.8766 14.152 45.0166 14.306C45.1426 14.46 45.3386 14.53 45.5766 14.53H46.6266V16H45.2966ZM50.0549 16L47.0449 8.58H48.7949L50.8249 13.83H50.8949L52.9249 8.58H54.6749L50.6149 18.8H48.9349L50.0549 16ZM58.3762 6.2H60.1262V16H58.3762V6.2ZM62.0916 8.58H63.4216L63.6316 9.49H63.7016C63.9116 9.14 64.2056 8.874 64.5696 8.692C64.9196 8.524 65.3116 8.44 65.7316 8.44C66.1376 8.44 66.5016 8.51 66.8376 8.65C67.1736 8.804 67.4676 9 67.7056 9.266C67.9436 9.532 68.1256 9.84 68.2656 10.204C68.3916 10.582 68.4616 10.988 68.4616 11.45V16H66.8516V11.59C66.8516 11.058 66.7116 10.638 66.4316 10.344C66.1376 10.05 65.7736 9.91 65.3116 9.91C65.0736 9.91 64.8496 9.952 64.6536 10.036C64.4436 10.134 64.2756 10.246 64.1356 10.4C63.9956 10.554 63.8836 10.736 63.8136 10.946C63.7436 11.156 63.7016 11.38 63.7016 11.618V16H62.0916V8.58ZM75.4551 6.2H77.6251L81.1951 16H79.3751L78.6191 13.9H74.4611L73.7051 16H71.8851L75.4551 6.2ZM78.0731 12.36L76.5751 8.16H76.5051L75.0071 12.36H78.0731ZM84.9155 16.14C84.3975 16.14 83.9215 16.056 83.4875 15.874C83.0535 15.706 82.6895 15.454 82.3815 15.132C82.0735 14.81 81.8355 14.404 81.6675 13.928C81.4995 13.452 81.4155 12.906 81.4155 12.29C81.4155 11.674 81.4995 11.128 81.6675 10.652C81.8355 10.176 82.0735 9.77 82.3815 9.448C82.6895 9.126 83.0535 8.874 83.4875 8.692C83.9215 8.524 84.3975 8.44 84.9155 8.44C85.3775 8.44 85.7835 8.51 86.1475 8.636C86.5115 8.762 86.8335 8.944 87.1135 9.168C87.3795 9.392 87.6175 9.644 87.7995 9.938C87.9815 10.232 88.1215 10.554 88.2055 10.89H86.5955C86.4135 10.568 86.2035 10.33 85.9375 10.162C85.6715 9.994 85.3355 9.91 84.9155 9.91C84.3555 9.91 83.9075 10.106 83.5575 10.512C83.2075 10.918 83.0255 11.52 83.0255 12.29C83.0255 13.06 83.2075 13.648 83.5575 14.054C83.9075 14.46 84.3555 14.67 84.9155 14.67C85.3355 14.67 85.6715 14.586 85.9375 14.418C86.2035 14.25 86.4135 14.012 86.5955 13.69H88.2055C88.1215 14.026 87.9815 14.334 87.7995 14.628C87.6175 14.922 87.3795 15.188 87.1135 15.412C86.8335 15.636 86.5115 15.818 86.1475 15.944C85.7835 16.07 85.3775 16.14 84.9155 16.14ZM92.6811 16.14C92.1631 16.14 91.6871 16.056 91.2531 15.874C90.8191 15.706 90.4551 15.454 90.1471 15.132C89.8391 14.81 89.6011 14.404 89.4331 13.928C89.2651 13.452 89.1811 12.906 89.1811 12.29C89.1811 11.674 89.2651 11.128 89.4331 10.652C89.6011 10.176 89.8391 9.77 90.1471 9.448C90.4551 9.126 90.8191 8.874 91.2531 8.692C91.6871 8.524 92.1631 8.44 92.6811 8.44C93.1431 8.44 93.5491 8.51 93.9131 8.636C94.2771 8.762 94.5991 8.944 94.8791 9.168C95.1451 9.392 95.3831 9.644 95.5651 9.938C95.7471 10.232 95.8871 10.554 95.9711 10.89H94.3611C94.1791 10.568 93.9691 10.33 93.7031 10.162C93.4371 9.994 93.1011 9.91 92.6811 9.91C92.1211 9.91 91.6731 10.106 91.3231 10.512C90.9731 10.918 90.7911 11.52 90.7911 12.29C90.7911 13.06 90.9731 13.648 91.3231 14.054C91.6731 14.46 92.1211 14.67 92.6811 14.67C93.1011 14.67 93.4371 14.586 93.7031 14.418C93.9691 14.25 94.1791 14.012 94.3611 13.69H95.9711C95.8871 14.026 95.7471 14.334 95.5651 14.628C95.3831 14.922 95.1451 15.188 94.8791 15.412C94.5991 15.636 94.2771 15.818 93.9131 15.944C93.5491 16.07 93.1431 16.14 92.6811 16.14ZM100.447 16.14C99.9287 16.14 99.4527 16.056 99.0187 15.874C98.5847 15.706 98.2207 15.454 97.9127 15.132C97.6047 14.81 97.3667 14.404 97.1987 13.928C97.0307 13.452 96.9467 12.906 96.9467 12.29C96.9467 11.674 97.0307 11.128 97.1987 10.652C97.3667 10.176 97.6047 9.77 97.9127 9.448C98.2207 9.126 98.5847 8.874 99.0187 8.692C99.4527 8.524 99.9287 8.44 100.447 8.44C100.965 8.44 101.441 8.524 101.875 8.692C102.309 8.874 102.673 9.126 102.981 9.448C103.289 9.77 103.527 10.176 103.695 10.652C103.863 11.128 103.947 11.674 103.947 12.29C103.947 12.906 103.863 13.452 103.695 13.928C103.527 14.404 103.289 14.81 102.981 15.132C102.673 15.454 102.309 15.706 101.875 15.874C101.441 16.056 100.965 16.14 100.447 16.14ZM100.447 14.67C100.713 14.67 100.951 14.614 101.189 14.516C101.413 14.418 101.609 14.278 101.791 14.082C101.959 13.886 102.099 13.634 102.197 13.34C102.295 13.046 102.337 12.696 102.337 12.29C102.337 11.884 102.295 11.534 102.197 11.24C102.099 10.946 101.959 10.694 101.791 10.498C101.609 10.302 101.413 10.148 101.189 10.05C100.951 9.952 100.713 9.91 100.447 9.91C100.181 9.91 99.9427 9.952 99.7187 10.05C99.4807 10.148 99.2847 10.302 99.1167 10.498C98.9347 10.694 98.8087 10.946 98.7107 11.24C98.6127 11.534 98.5567 11.884 98.5567 12.29C98.5567 12.696 98.6127 13.046 98.7107 13.34C98.8087 13.634 98.9347 13.886 99.1167 14.082C99.2847 14.278 99.4807 14.418 99.7187 14.516C99.9427 14.614 100.181 14.67 100.447 14.67ZM105.418 8.58H106.748L106.958 9.49H107.028C107.238 9.168 107.504 8.944 107.812 8.79C108.106 8.65 108.456 8.58 108.848 8.58H109.758V10.12H108.988C108.386 10.12 107.91 10.288 107.56 10.61C107.21 10.932 107.028 11.38 107.028 11.94V16H105.418V8.58ZM113.749 14.67C114.015 14.67 114.253 14.614 114.491 14.516C114.715 14.418 114.911 14.278 115.093 14.082C115.261 13.886 115.401 13.634 115.499 13.34C115.597 13.046 115.639 12.696 115.639 12.29C115.639 11.884 115.597 11.534 115.499 11.24C115.401 10.946 115.261 10.694 115.093 10.498C114.911 10.302 114.715 10.148 114.491 10.05C114.253 9.952 114.015 9.91 113.749 9.91C113.483 9.91 113.245 9.952 113.021 10.05C112.783 10.148 112.587 10.302 112.419 10.498C112.237 10.694 112.111 10.946 112.013 11.24C111.915 11.534 111.859 11.884 111.859 12.29C111.859 12.696 111.915 13.046 112.013 13.34C112.111 13.634 112.237 13.886 112.419 14.082C112.587 14.278 112.783 14.418 113.021 14.516C113.245 14.614 113.483 14.67 113.749 14.67ZM113.469 16.14C112.993 16.14 112.559 16.056 112.167 15.888C111.775 15.72 111.439 15.468 111.159 15.146C110.865 14.824 110.641 14.432 110.487 13.942C110.333 13.466 110.249 12.92 110.249 12.29C110.249 11.66 110.333 11.114 110.487 10.624C110.641 10.148 110.865 9.742 111.159 9.42C111.439 9.098 111.775 8.86 112.167 8.692C112.559 8.524 112.993 8.44 113.469 8.44C113.735 8.44 113.973 8.468 114.197 8.524C114.421 8.594 114.631 8.664 114.813 8.762C114.995 8.86 115.149 8.972 115.275 9.084C115.401 9.21 115.499 9.322 115.569 9.42H115.639V6.2H117.249V16H115.919L115.709 15.09H115.639C115.429 15.37 115.135 15.608 114.771 15.818C114.393 16.028 113.959 16.14 113.469 16.14ZM121.594 14.74C122.154 14.74 122.602 14.6 122.924 14.306C123.246 14.012 123.414 13.62 123.414 13.13V12.78H121.594C121.132 12.78 120.81 12.878 120.628 13.06C120.432 13.242 120.334 13.48 120.334 13.76C120.334 14.04 120.446 14.278 120.656 14.46C120.866 14.642 121.174 14.74 121.594 14.74ZM121.244 16.14C120.866 16.14 120.516 16.084 120.208 15.958C119.886 15.846 119.62 15.692 119.41 15.482C119.186 15.272 119.018 15.034 118.906 14.754C118.78 14.474 118.724 14.166 118.724 13.83C118.724 13.508 118.78 13.214 118.906 12.934C119.032 12.654 119.214 12.402 119.452 12.192C119.69 11.982 119.97 11.828 120.32 11.702C120.67 11.576 121.062 11.52 121.524 11.52H123.414V11.17C123.414 10.75 123.288 10.428 123.022 10.19C122.756 9.952 122.406 9.84 121.944 9.84C121.552 9.84 121.258 9.924 121.048 10.092C120.838 10.274 120.684 10.47 120.614 10.68H118.962C119.046 10.358 119.172 10.064 119.34 9.798C119.508 9.532 119.718 9.294 119.97 9.084C120.222 8.888 120.516 8.734 120.852 8.608C121.174 8.496 121.538 8.44 121.944 8.44C122.938 8.44 123.694 8.678 124.226 9.168C124.758 9.658 125.024 10.316 125.024 11.17V16H123.624L123.484 15.09H123.414C123.344 15.216 123.246 15.328 123.12 15.454C122.994 15.58 122.826 15.692 122.644 15.79C122.462 15.888 122.252 15.972 122.014 16.042C121.776 16.112 121.524 16.14 121.244 16.14ZM126.773 8.58H128.103L128.313 9.49H128.383C128.593 9.14 128.887 8.874 129.251 8.692C129.601 8.524 129.993 8.44 130.413 8.44C130.819 8.44 131.183 8.51 131.519 8.65C131.855 8.804 132.149 9 132.387 9.266C132.625 9.532 132.807 9.84 132.947 10.204C133.073 10.582 133.143 10.988 133.143 11.45V16H131.533V11.59C131.533 11.058 131.393 10.638 131.113 10.344C130.819 10.05 130.455 9.91 129.993 9.91C129.755 9.91 129.531 9.952 129.335 10.036C129.125 10.134 128.957 10.246 128.817 10.4C128.677 10.554 128.565 10.736 128.495 10.946C128.425 11.156 128.383 11.38 128.383 11.618V16H126.773V8.58ZM138.044 16.14C137.526 16.14 137.05 16.056 136.616 15.874C136.182 15.706 135.818 15.454 135.51 15.132C135.202 14.81 134.964 14.404 134.796 13.928C134.628 13.452 134.544 12.906 134.544 12.29C134.544 11.674 134.628 11.128 134.796 10.652C134.964 10.176 135.202 9.77 135.51 9.448C135.818 9.126 136.182 8.874 136.616 8.692C137.05 8.524 137.526 8.44 138.044 8.44C138.506 8.44 138.912 8.51 139.276 8.636C139.64 8.762 139.962 8.944 140.242 9.168C140.508 9.392 140.746 9.644 140.928 9.938C141.11 10.232 141.25 10.554 141.334 10.89H139.724C139.542 10.568 139.332 10.33 139.066 10.162C138.8 9.994 138.464 9.91 138.044 9.91C137.484 9.91 137.036 10.106 136.686 10.512C136.336 10.918 136.154 11.52 136.154 12.29C136.154 13.06 136.336 13.648 136.686 14.054C137.036 14.46 137.484 14.67 138.044 14.67C138.464 14.67 138.8 14.586 139.066 14.418C139.332 14.25 139.542 14.012 139.724 13.69H141.334C141.25 14.026 141.11 14.334 140.928 14.628C140.746 14.922 140.508 15.188 140.242 15.412C139.962 15.636 139.64 15.818 139.276 15.944C138.912 16.07 138.506 16.14 138.044 16.14ZM145.866 16.14C145.32 16.14 144.83 16.056 144.396 15.874C143.962 15.706 143.584 15.454 143.276 15.132C142.968 14.81 142.73 14.404 142.562 13.928C142.394 13.452 142.31 12.906 142.31 12.29C142.31 11.674 142.394 11.128 142.562 10.652C142.73 10.176 142.968 9.77 143.276 9.448C143.584 9.126 143.948 8.874 144.382 8.692C144.816 8.524 145.292 8.44 145.81 8.44C146.37 8.44 146.874 8.538 147.308 8.734C147.742 8.93 148.106 9.196 148.4 9.518C148.694 9.854 148.932 10.246 149.086 10.68C149.24 11.128 149.31 11.59 149.31 12.08C149.31 12.178 149.31 12.276 149.296 12.36C149.282 12.444 149.282 12.514 149.268 12.584C149.254 12.654 149.254 12.724 149.24 12.78H143.99C144.032 13.34 144.214 13.788 144.55 14.138C144.872 14.488 145.32 14.67 145.88 14.67C146.272 14.67 146.58 14.586 146.818 14.432C147.042 14.278 147.238 14.068 147.42 13.83H149.17C149.072 14.152 148.918 14.446 148.736 14.726C148.554 15.006 148.316 15.244 148.05 15.454C147.784 15.664 147.462 15.832 147.098 15.958C146.734 16.084 146.328 16.14 145.866 16.14ZM147.63 11.52C147.56 11.058 147.364 10.68 147.07 10.372C146.762 10.064 146.342 9.91 145.81 9.91C145.32 9.91 144.914 10.05 144.606 10.344C144.298 10.638 144.088 11.03 143.99 11.52H147.63ZM155.813 7.74H152.803V6.2H160.573V7.74H157.563V16H155.813V7.74ZM163.789 16.14C163.271 16.14 162.795 16.056 162.361 15.874C161.927 15.706 161.563 15.454 161.255 15.132C160.947 14.81 160.709 14.404 160.541 13.928C160.373 13.452 160.289 12.906 160.289 12.29C160.289 11.674 160.373 11.128 160.541 10.652C160.709 10.176 160.947 9.77 161.255 9.448C161.563 9.126 161.927 8.874 162.361 8.692C162.795 8.524 163.271 8.44 163.789 8.44C164.307 8.44 164.783 8.524 165.217 8.692C165.651 8.874 166.015 9.126 166.323 9.448C166.631 9.77 166.869 10.176 167.037 10.652C167.205 11.128 167.289 11.674 167.289 12.29C167.289 12.906 167.205 13.452 167.037 13.928C166.869 14.404 166.631 14.81 166.323 15.132C166.015 15.454 165.651 15.706 165.217 15.874C164.783 16.056 164.307 16.14 163.789 16.14ZM163.789 14.67C164.055 14.67 164.293 14.614 164.531 14.516C164.755 14.418 164.951 14.278 165.133 14.082C165.301 13.886 165.441 13.634 165.539 13.34C165.637 13.046 165.679 12.696 165.679 12.29C165.679 11.884 165.637 11.534 165.539 11.24C165.441 10.946 165.301 10.694 165.133 10.498C164.951 10.302 164.755 10.148 164.531 10.05C164.293 9.952 164.055 9.91 163.789 9.91C163.523 9.91 163.285 9.952 163.061 10.05C162.823 10.148 162.627 10.302 162.459 10.498C162.277 10.694 162.151 10.946 162.053 11.24C161.955 11.534 161.899 11.884 161.899 12.29C161.899 12.696 161.955 13.046 162.053 13.34C162.151 13.634 162.277 13.886 162.459 14.082C162.627 14.278 162.823 14.418 163.061 14.516C163.285 14.614 163.523 14.67 163.789 14.67Z" fill="white"/>
<g clip-path="url(#clip0_5909_5770)">
<path d="M118.413 64.9696C118.413 83.9926 102.992 99.4138 83.9692 99.4138C64.9462 99.4138 49.525 83.9926 49.525 64.9696C49.525 45.9466 64.9462 30.5254 83.9692 30.5254C102.992 30.5254 118.413 45.9466 118.413 64.9696Z" stroke="white" stroke-width="1.2"/>
<path d="M88.4873 35.6696C88.4334 36.0722 88.2258 36.4383 87.9081 36.6913C87.5809 36.9361 87.1704 37.0419 86.7656 36.9858C86.5336 36.9729 86.3074 36.909 86.1029 36.7986C85.8984 36.6883 85.7207 36.5343 85.5825 36.3474C85.3065 35.9712 85.1959 35.4959 85.2511 34.9216C85.2788 34.595 85.3781 34.2787 85.5418 33.9948C85.6741 33.7844 85.8502 33.605 86.0582 33.469C86.2662 33.333 86.501 33.2434 86.7468 33.2066C86.9925 33.1697 87.2434 33.1864 87.4821 33.2554C87.7208 33.3245 87.9418 33.4443 88.1299 33.6066C88.2645 33.7305 88.3722 33.8807 88.4461 34.048C88.5202 34.2153 88.5589 34.396 88.56 34.579L87.9278 34.5173C87.9125 34.3114 87.8211 34.1186 87.6715 33.9763C87.5142 33.8312 87.312 33.7442 87.0984 33.7298C86.8764 33.703 86.652 33.7553 86.465 33.8777C86.2884 33.9925 86.1478 34.1549 86.0595 34.346C85.9018 34.7057 85.8484 35.1024 85.9054 35.4909C85.9302 35.6468 85.9784 35.7981 86.0484 35.9395C86.1177 36.079 86.2222 36.1979 86.3516 36.2846C86.4948 36.3802 86.6604 36.4371 86.8322 36.4497C87.372 36.5015 87.7109 36.2217 87.8489 35.6105L88.4873 35.6696Z" fill="white"/>
<path d="M92.5751 34.2633L92.4519 34.7871L90.5121 34.336L90.2915 35.2776L92.092 35.6978L91.9749 36.2007L90.1743 35.7816L89.9279 36.8292L91.8998 37.2876L91.7765 37.8213L89.1885 37.2186L90.0154 33.6681L92.5751 34.2633Z" fill="white"/>
<path d="M93.8727 34.6552L95.4871 35.2641C95.7841 35.3626 96.0428 35.5518 96.2266 35.8051C96.3831 36.0368 96.4004 36.3177 96.2759 36.6468C96.2116 36.835 96.0907 36.9986 95.9296 37.1151C95.7741 37.2232 95.5878 37.2781 95.3984 37.2716C95.4689 37.3168 95.5314 37.3735 95.5833 37.4392C95.6255 37.4926 95.6576 37.5531 95.6782 37.6179C95.6964 37.6841 95.7026 37.7529 95.6967 37.8213C95.6939 37.8891 95.686 37.9567 95.6733 38.0234C95.6609 38.0788 95.6425 38.1466 95.6153 38.2391C95.6153 38.2637 95.5981 38.3081 95.5796 38.3734C95.5611 38.4387 95.5463 38.4831 95.5414 38.504C95.5365 38.525 95.5241 38.5619 95.5094 38.6149C95.4946 38.6679 95.4859 38.7061 95.481 38.7283C95.476 38.7505 95.4699 38.7825 95.4638 38.8257C95.4576 38.8688 95.4527 38.9008 95.4502 38.9243C95.4478 38.9477 95.4502 38.9748 95.4502 39.0056C95.4486 39.0329 95.4511 39.0603 95.4576 39.0869C95.4628 39.1107 95.4706 39.1339 95.481 39.156L94.8389 38.9095C94.8334 38.8915 94.8301 38.8728 94.829 38.854C94.8278 38.8323 94.8278 38.8104 94.829 38.7887C94.829 38.7653 94.8291 38.7443 94.8365 38.7258C94.8438 38.7074 94.8451 38.6815 94.8525 38.6494C94.8571 38.6228 94.8633 38.5965 94.871 38.5706C94.871 38.5508 94.8845 38.5213 94.8956 38.4818C94.9067 38.4424 94.9153 38.4128 94.9215 38.3931C94.9277 38.3734 94.9362 38.3389 94.9523 38.2896C94.9683 38.2403 94.9782 38.207 94.9856 38.1873C95.0743 37.9038 95.0879 37.691 95.0263 37.5489C94.9646 37.4072 94.7934 37.2827 94.5123 37.1792L93.7175 36.8785L93.1862 38.2871L92.5911 38.0628L93.8727 34.6552ZM94.2831 35.3688L93.8801 36.4361L94.6701 36.7343C94.7673 36.7727 94.8675 36.8031 94.9696 36.8255C95.058 36.843 95.1481 36.8505 95.2382 36.8477C95.3289 36.8454 95.4159 36.8119 95.4847 36.7528C95.5597 36.6809 95.6183 36.5937 95.6565 36.4972C95.6949 36.4006 95.7118 36.297 95.7065 36.1933C95.6972 36.1094 95.6604 36.031 95.6018 35.9702C95.5455 35.909 95.4802 35.8566 95.4083 35.8149C95.3256 35.7667 95.239 35.7255 95.1495 35.6917L94.2831 35.3688Z" fill="white"/>
<path d="M100.223 37.5323L99.964 38.0253L98.9374 37.4793L97.4844 40.2041L96.9199 39.9035L98.3729 37.1737L97.3463 36.6277L97.6064 36.1348L100.223 37.5323Z" fill="white"/>
<path d="M101.656 38.4748L99.6592 41.5262L99.1194 41.1725L101.115 38.1211L101.656 38.4748Z" fill="white"/>
<path d="M104.809 40.8459L104.473 41.271L102.994 40.1053L102.378 40.8841L103.67 41.907L103.35 42.3125L102.056 41.2896L101.07 42.538L100.563 42.1375L102.826 39.2783L104.809 40.8459Z" fill="white"/>
<path d="M106.118 42.0774L103.609 44.7233L103.141 44.2785L105.65 41.6338L106.118 42.0774Z" fill="white"/>
<path d="M108.867 45.0549L108.463 45.4049L107.152 43.9063L106.43 44.5423L107.646 45.9336L107.256 46.2737L106.04 44.8824L105.23 45.5898L106.553 47.1179L106.14 47.4778L104.39 45.4776L107.135 43.0781L108.867 45.0549Z" fill="white"/>
<path d="M109.701 46.1377L110.469 47.2937C110.596 47.4791 110.698 47.6805 110.772 47.8927C110.834 48.0868 110.85 48.2926 110.819 48.4941C110.75 48.971 110.464 49.3752 109.957 49.7104C109.419 50.0678 108.914 50.1989 108.441 50.1035C108.248 50.0684 108.065 49.9886 107.908 49.8706C107.729 49.7198 107.574 49.5414 107.45 49.3419L106.661 48.1564L109.701 46.1377ZM109.6 46.9671L107.465 48.3881L107.881 49.0142C108.102 49.3427 108.355 49.5133 108.639 49.5256C108.923 49.533 109.237 49.4233 109.581 49.1941C109.925 48.9648 110.112 48.7307 110.197 48.4546C110.282 48.1785 110.212 47.8816 109.998 47.5599L109.6 46.9671Z" fill="white"/>
<path d="M111.946 52.3594C112.163 52.4554 112.333 52.6316 112.422 52.8509C112.511 53.0702 112.512 53.3156 112.423 53.5352C112.335 53.7548 112.165 53.9315 111.949 54.028C111.733 54.1246 111.487 54.1335 111.265 54.0527C111.048 53.9568 110.878 53.7806 110.789 53.5612C110.7 53.3418 110.699 53.0965 110.788 52.877C110.876 52.6573 111.046 52.4807 111.262 52.3841C111.479 52.2876 111.724 52.2787 111.946 52.3594Z" fill="white"/>
<path d="M113.22 60.1657C112.82 60.2374 112.408 60.1533 112.069 59.9303C111.736 59.6944 111.509 59.3366 111.438 58.9346C111.379 58.7096 111.371 58.4744 111.413 58.2458C111.456 58.0171 111.548 57.8007 111.685 57.6122C111.957 57.2326 112.375 56.9808 112.939 56.8567C113.258 56.7815 113.589 56.7781 113.909 56.8469C114.15 56.9075 114.375 57.0195 114.569 57.1753C114.763 57.3309 114.92 57.5268 115.031 57.7491C115.143 57.9714 115.204 58.2152 115.212 58.4636C115.221 58.712 115.175 58.9592 115.079 59.1884C115.002 59.3539 114.893 59.5018 114.757 59.6231C114.621 59.7445 114.462 59.8364 114.289 59.8934L114.152 59.2771C114.343 59.1987 114.498 59.052 114.587 58.8655C114.675 58.6724 114.694 58.4549 114.641 58.2493C114.6 58.0298 114.482 57.8321 114.308 57.6911C114.145 57.5584 113.947 57.4751 113.738 57.4507C113.347 57.4107 112.953 57.4825 112.602 57.6578C112.461 57.7292 112.331 57.8214 112.218 57.9314C112.107 58.0409 112.027 58.1772 111.984 58.327C111.936 58.4936 111.933 58.67 111.974 58.8384C112.091 59.3684 112.461 59.6045 113.083 59.5471L113.22 60.1657Z" fill="white"/>
<path d="M115.823 63.6196L115.287 63.6652L115.118 61.6811L114.154 61.7636L114.317 63.6048L113.802 63.6492L113.644 61.8006L112.573 61.8918L112.744 63.908L112.198 63.9536L111.973 61.3064L115.606 60.9971L115.823 63.6196Z" fill="white"/>
<path d="M115.852 64.9743L115.776 66.6996C115.776 67.0136 115.677 67.3198 115.493 67.5746C115.321 67.7952 115.06 67.8987 114.708 67.8827C114.51 67.8796 114.317 67.816 114.155 67.7003C114.003 67.5847 113.892 67.423 113.84 67.2394C113.819 67.3205 113.785 67.3973 113.737 67.4661C113.7 67.5225 113.653 67.5718 113.598 67.6115C113.54 67.6486 113.476 67.6761 113.409 67.6929C113.344 67.7108 113.278 67.724 113.211 67.7324C113.154 67.7385 113.079 67.7422 112.987 67.7459L112.849 67.7521H112.713L112.597 67.7582L112.481 67.7656L112.383 67.7792C112.35 67.7835 112.318 67.7897 112.285 67.7976L112.208 67.8199C112.181 67.8272 112.155 67.8384 112.131 67.8531C112.111 67.8654 112.091 67.8798 112.073 67.8963L112.098 67.2184C112.114 67.2079 112.131 67.1992 112.149 67.1926C112.169 67.1839 112.189 67.1769 112.21 67.1716C112.231 67.1661 112.252 67.162 112.273 67.1592L112.351 67.1494C112.377 67.1459 112.403 67.1439 112.43 67.1432H112.522H112.615H112.723H112.838C113.135 67.1432 113.34 67.0903 113.454 66.9842C113.568 66.882 113.634 66.6799 113.647 66.3804L113.684 65.5313L112.181 65.4647L112.208 64.8301L115.852 64.9743ZM115.302 65.5905L114.161 65.5399L114.124 66.3841C114.116 66.4879 114.116 66.5922 114.124 66.6959C114.135 66.7855 114.156 66.8736 114.187 66.9584C114.217 67.0449 114.276 67.1181 114.355 67.1655C114.447 67.2135 114.548 67.2415 114.652 67.2474C114.755 67.2534 114.859 67.2372 114.956 67.1999C115.032 67.1641 115.095 67.1049 115.135 67.0311C115.175 66.958 115.204 66.8796 115.222 66.7982C115.24 66.705 115.251 66.6107 115.254 66.5159L115.302 65.5905Z" fill="white"/>
<path d="M115.098 71.9022L114.554 71.8085L114.752 70.6636L111.704 70.1349L111.814 69.5052L114.86 70.0326L115.059 68.8877L115.604 68.9814L115.098 71.9022Z" fill="white"/>
<path d="M114.651 73.5539L111.13 72.6086L111.298 71.9863L114.819 72.9303L114.651 73.5539Z" fill="white"/>
<path d="M113.383 77.2885L112.874 77.1013L113.523 75.3377L112.591 74.9938L112.021 76.5405L111.535 76.3618L112.106 74.8152L110.612 74.2643L110.835 73.6592L114.255 74.9199L113.383 77.2885Z" fill="white"/>
<path d="M112.61 78.9265L109.317 77.3601L109.594 76.7772L112.887 78.3436L112.61 78.9265Z" fill="white"/>
<path d="M110.632 82.4536L110.17 82.1775L111.191 80.467L110.359 79.974L109.412 81.5626L108.969 81.2976L109.915 79.7091L108.991 79.1595L107.956 80.8984L107.485 80.6186L108.841 78.335L111.974 80.1971L110.632 82.4536Z" fill="white"/>
<path d="M109.86 83.5823L108.998 84.6706C108.861 84.8484 108.701 85.0071 108.522 85.1426C108.356 85.2616 108.165 85.3406 107.964 85.373C107.49 85.4552 107.016 85.3085 106.543 84.9331C106.036 84.5325 105.757 84.0926 105.7 83.6131C105.674 83.4183 105.693 83.2201 105.757 83.0339C105.844 82.8163 105.966 82.6141 106.118 82.435L107.001 81.3185L109.86 83.5823ZM109.041 83.7426L107.03 82.1503L106.562 82.7468C106.316 83.0598 106.231 83.3519 106.316 83.6255C106.401 83.8991 106.598 84.1616 106.922 84.4179C107.246 84.6742 107.527 84.7802 107.813 84.7729C108.099 84.7654 108.364 84.6089 108.603 84.307L109.041 83.7426Z" fill="white"/>
<path d="M104.633 87.6477C104.62 87.8592 104.533 88.0594 104.388 88.2142C104.243 88.3689 104.049 88.4686 103.839 88.4963C103.629 88.524 103.416 88.4779 103.236 88.366C103.056 88.2541 102.92 88.0831 102.852 87.8824C102.784 87.6817 102.788 87.4636 102.863 87.2652C102.938 87.067 103.079 86.9008 103.263 86.795C103.446 86.6892 103.661 86.6505 103.87 86.6853C104.079 86.72 104.27 86.8263 104.409 86.9859C104.49 87.0751 104.551 87.1798 104.59 87.2937C104.628 87.4074 104.643 87.5279 104.633 87.6477Z" fill="white"/>
<path d="M97.615 91.2874C97.4214 90.9303 97.3728 90.5123 97.4795 90.1203C97.5997 89.7301 97.8689 89.4028 98.2287 89.2096C98.4241 89.0838 98.6448 89.0027 98.875 88.9721C99.1053 88.9413 99.3395 88.9619 99.561 89.0322C100.006 89.1726 100.376 89.491 100.67 89.9872C100.841 90.2668 100.948 90.5808 100.983 90.9066C101.002 91.1555 100.966 91.4055 100.879 91.6394C100.792 91.8733 100.655 92.0854 100.477 92.2612C100.3 92.4369 100.087 92.5721 99.8522 92.6574C99.6176 92.7427 99.3673 92.776 99.1185 92.7552C98.9375 92.7341 98.7627 92.6761 98.605 92.5847C98.4473 92.4933 98.31 92.3706 98.2016 92.2241L98.7476 91.9011C98.8824 92.0579 99.0701 92.1597 99.275 92.1871C99.4917 92.2033 99.708 92.1508 99.8932 92.0371C100.078 91.9233 100.223 91.7542 100.307 91.5537C100.382 91.3574 100.4 91.1436 100.358 90.9374C100.275 90.5533 100.083 90.2009 99.8062 89.922C99.695 89.8104 99.5675 89.7164 99.4278 89.6434C99.2891 89.5717 99.1341 89.5372 98.9781 89.5436C98.8064 89.5512 98.6395 89.603 98.4937 89.6939C98.0262 89.9717 97.9174 90.3973 98.1671 90.9707L97.615 91.2874Z" fill="white"/>
<path d="M95.1471 94.8357L94.9363 94.3428L96.7689 93.5627L96.3906 92.6729L94.6899 93.3963L94.4865 92.9206L96.1885 92.1959L95.767 91.2101L93.906 92.0012L93.6917 91.4972L96.1367 90.457L97.5638 93.8116L95.1471 94.8357Z" fill="white"/>
<path d="M93.8591 95.2878L92.1966 95.7487C91.8981 95.8446 91.577 95.8446 91.2784 95.7487C91.0147 95.6538 90.8348 95.4369 90.7412 95.098C90.6818 94.9082 90.6818 94.7048 90.7412 94.5151C90.8036 94.3347 90.923 94.1794 91.0813 94.0726C90.9982 94.0779 90.9148 94.0687 90.8348 94.0455C90.7701 94.0272 90.7092 93.9976 90.6549 93.958C90.6013 93.9148 90.5554 93.8627 90.5193 93.804C90.4815 93.7479 90.4481 93.689 90.4195 93.6278C90.3961 93.5747 90.3689 93.5045 90.3369 93.4182C90.3283 93.3961 90.311 93.3529 90.2889 93.2889L90.242 93.1656L90.2014 93.0572C90.1816 93.0066 90.168 92.9709 90.1582 92.9499C90.1484 92.929 90.1348 92.8994 90.1151 92.8612C90.0953 92.823 90.0793 92.7934 90.067 92.7737C90.0547 92.754 90.0399 92.7318 90.0214 92.7059C90.0059 92.6833 89.9877 92.6625 89.9672 92.6443C89.9491 92.6282 89.9293 92.6141 89.9081 92.6024L90.5686 92.4188C90.5837 92.4303 90.5973 92.4435 90.6093 92.4582C90.6363 92.4919 90.6598 92.5282 90.6795 92.5666L90.7116 92.6369C90.7252 92.6665 90.7362 92.6912 90.7436 92.7108C90.751 92.7305 90.7609 92.7589 90.7756 92.7971C90.7904 92.8353 90.8003 92.8649 90.8077 92.8846L90.8435 92.9857C90.8607 93.0337 90.8718 93.0682 90.8767 93.088C90.9729 93.3697 91.0874 93.5497 91.2206 93.6278C91.3537 93.7066 91.5656 93.7054 91.854 93.6278L92.6735 93.401L92.2718 91.9492L92.888 91.7804L93.8591 95.2878ZM93.1086 94.9538L92.8029 93.8532L91.9895 94.0788C91.8884 94.1056 91.7895 94.1402 91.6938 94.1823C91.6121 94.2198 91.5351 94.2669 91.4645 94.3228C91.3914 94.3778 91.3399 94.4567 91.3191 94.5459C91.2967 94.6519 91.3022 94.7618 91.3351 94.8651C91.3587 94.9624 91.4057 95.0525 91.472 95.1276C91.5288 95.1908 91.6044 95.2339 91.6877 95.2508C91.7688 95.2665 91.8518 95.2703 91.9341 95.2619C92.0286 95.2506 92.1222 95.2321 92.2139 95.2064L93.1086 94.9538Z" fill="white"/>
<path d="M87.0427 96.7083L86.9651 96.1611L88.1162 95.9959L87.6774 92.9347L88.3121 92.8447L88.7496 95.906L89.8994 95.7409L89.9782 96.2893L87.0427 96.7083Z" fill="white"/>
<path d="M85.3331 96.7958L85.1433 93.1553L85.7879 93.1221L85.9777 96.7626L85.3331 96.7958Z" fill="white"/>
<path d="M81.3955 96.7484L81.4153 96.2062L83.2935 96.2752L83.3292 95.2892L81.6815 95.2276L81.7011 94.7113L83.3489 94.7717L83.4068 93.1807L84.0514 93.204L83.9182 96.847L81.3955 96.7484Z" fill="white"/>
<path d="M79.6028 96.525L80.0625 92.9092L80.702 92.9905L80.2436 96.6064L79.6028 96.525Z" fill="white"/>
<path d="M75.6311 95.7495L75.7482 95.2245L77.693 95.6594L77.9037 94.7142L76.0995 94.3112L76.2128 93.8059L78.0171 94.2077L78.2512 93.1577L76.2794 92.7165L76.4026 92.1816L78.9907 92.7621L78.1945 96.32L75.6311 95.7495Z" fill="white"/>
<path d="M74.3109 95.3653L73.0095 94.8846C72.7986 94.8095 72.5988 94.7063 72.4155 94.5778C72.2505 94.4576 72.1159 94.3006 72.0223 94.1193C71.7972 93.6945 71.7894 93.1988 71.999 92.6318C72.2224 92.0263 72.5531 91.6225 72.991 91.4204C73.1683 91.336 73.3628 91.2938 73.5592 91.2971C73.7932 91.3125 74.0234 91.3653 74.2406 91.4537L75.5766 91.9466L74.3109 95.3653ZM73.903 94.6357L74.7915 92.2288L74.0854 91.9688C73.7156 91.8308 73.4075 91.8456 73.1734 92.0033C72.9392 92.1611 72.7507 92.4384 72.6065 92.8253C72.4623 93.2123 72.4512 93.513 72.5485 93.7841C72.6459 94.0552 72.874 94.2561 73.2362 94.3892L73.903 94.6357Z" fill="white"/>
<path d="M68.8239 91.6567C68.6781 91.6937 68.5255 91.6941 68.3795 91.658C68.2335 91.6217 68.0988 91.5501 67.9872 91.4494C67.8756 91.3486 67.7906 91.2218 67.7398 91.0802C67.6889 90.9387 67.6739 90.7868 67.6958 90.6381C67.7178 90.4893 67.7762 90.3483 67.8658 90.2275C67.9554 90.1067 68.0734 90.0099 68.2095 89.9458C68.3454 89.8815 68.4952 89.852 68.6454 89.8596C68.7955 89.8671 68.9415 89.9117 69.0704 89.9892C69.1733 90.0505 69.2631 90.1313 69.3348 90.2272C69.4065 90.3232 69.4584 90.4323 69.4878 90.5485C69.5172 90.6645 69.5235 90.7852 69.5062 90.9037C69.4889 91.0222 69.4485 91.1361 69.387 91.2389C69.3266 91.3433 69.2455 91.4341 69.1486 91.506C69.0517 91.5778 68.9412 91.6291 68.8239 91.6567Z" fill="white"/>
<path d="M63.1933 86.1084C63.472 85.8123 63.8544 85.6356 64.2605 85.6155C64.669 85.6083 65.0637 85.7629 65.3586 86.0455C65.5394 86.1916 65.6857 86.3758 65.787 86.5851C65.8881 86.7943 65.9417 87.0234 65.944 87.2558C65.944 87.7216 65.7555 88.1714 65.3783 88.6053C65.1655 88.8545 64.8999 89.0532 64.6007 89.187C64.3699 89.2809 64.1215 89.3239 63.8725 89.3127C63.6235 89.3015 63.3799 89.2366 63.1585 89.1223C62.937 89.0079 62.7429 88.847 62.5895 88.6506C62.4362 88.4541 62.3273 88.2267 62.2702 87.9841C62.2348 87.8053 62.2361 87.6212 62.2743 87.443C62.3124 87.2648 62.3865 87.0962 62.4921 86.9477L62.969 87.3667C62.8613 87.5434 62.8227 87.7536 62.8605 87.957C62.912 88.168 63.0286 88.3575 63.1939 88.4984C63.3592 88.6394 63.5646 88.7246 63.7812 88.742C63.9915 88.753 64.2004 88.7038 64.3838 88.6003C64.5767 88.4901 64.7494 88.3476 64.894 88.1788C65.0062 88.0526 65.1019 87.9127 65.1787 87.7623C65.25 87.6213 65.2998 87.4706 65.3266 87.3149C65.3511 87.1612 65.3359 87.0038 65.2822 86.8577C65.2216 86.6964 65.1206 86.5535 64.9889 86.4423C64.5781 86.0842 64.1398 86.1125 63.6739 86.5274L63.1933 86.1084Z" fill="white"/>
<path d="M59.0557 84.8648L59.4599 84.5111L60.7699 86.0109L61.4995 85.375L60.2831 83.9788L60.6726 83.6386L61.8889 85.0312L62.6986 84.3238L61.3676 82.8006L61.7805 82.4395L63.5293 84.4408L60.7834 86.8428L59.0557 84.8648Z" fill="white"/>
<path d="M58.2274 83.786L57.271 82.3502C57.0855 82.097 56.9846 81.7917 56.9827 81.4777C56.9909 81.1984 57.1412 80.961 57.4337 80.7654C57.596 80.6506 57.7895 80.5882 57.9883 80.5867C58.179 80.59 58.3636 80.6548 58.5146 80.7715C58.4835 80.693 58.4664 80.6096 58.464 80.525C58.4608 80.4574 58.4699 80.3898 58.4911 80.3255C58.5154 80.2612 58.5504 80.2016 58.5946 80.1492C58.6377 80.0968 58.6847 80.0477 58.7352 80.0025C58.7771 79.9644 58.8349 79.9163 58.9076 79.8596C58.9262 79.8436 58.9619 79.8152 59.0161 79.7733L59.1233 79.6895L59.2133 79.6168C59.2568 79.5823 59.2864 79.5576 59.3021 79.5429L59.3735 79.4738C59.3974 79.4504 59.42 79.4257 59.4413 79.3999L59.4919 79.3371C59.5084 79.3148 59.5225 79.2909 59.5337 79.2656C59.5427 79.2428 59.5497 79.2193 59.5547 79.1953L59.9343 79.7671C59.9283 79.7851 59.92 79.802 59.9096 79.8177C59.8982 79.8362 59.8854 79.854 59.8714 79.8706C59.8583 79.8871 59.8443 79.9027 59.8295 79.9175L59.7716 79.9705C59.7481 79.9927 59.7285 80.0099 59.7112 80.0235L59.6397 80.0802L59.567 80.1381L59.482 80.2046C59.4413 80.2354 59.4117 80.2564 59.3945 80.2675C59.1579 80.4474 59.0247 80.6113 58.989 80.7604C58.9533 80.9096 59.0235 81.1117 59.1899 81.3619L59.6606 82.0693L60.914 81.2349L61.2615 81.7612L58.2274 83.786ZM58.3099 82.9689L59.2614 82.3354L58.7931 81.633C58.7359 81.546 58.672 81.4637 58.6021 81.3865C58.541 81.3203 58.4723 81.2615 58.3974 81.2115C58.3219 81.1601 58.231 81.1361 58.1399 81.1438C58.0322 81.1561 57.9295 81.196 57.8416 81.2596C57.7561 81.3114 57.6849 81.3839 57.6346 81.4703C57.5927 81.5452 57.5767 81.6318 57.589 81.7168C57.6003 81.7989 57.6231 81.8789 57.6568 81.9546C57.6958 82.041 57.7429 82.1235 57.7972 82.2011L58.3099 82.9689Z" fill="white"/>
<path d="M54.7507 77.7552L55.2437 77.5087L55.7613 78.5562L58.5329 77.1846L58.8177 77.7576L56.046 79.1256L56.5611 80.1669L56.0682 80.4134L54.7507 77.7552Z" fill="white"/>
<path d="M54.1338 76.1497L57.5352 74.836L57.7669 75.4374L54.3667 76.7524L54.1338 76.1497Z" fill="white"/>
<path d="M52.9546 72.3862L53.4771 72.2371L53.9923 74.0438L54.9474 73.7714L54.4951 72.1866L54.988 72.0448L55.4453 73.6272L56.9759 73.1909L57.1534 73.8072L53.6472 74.8066L52.9546 72.3862Z" fill="white"/>
<path d="M52.6145 70.6112L56.1971 69.9297L56.3203 70.5643L52.739 71.2422L52.6145 70.6112Z" fill="white"/>
<path d="M52.1274 66.6022L52.6635 66.5517L52.8496 68.5347L53.8134 68.4446L53.6396 66.6022L54.1547 66.553L54.3273 68.3941L55.3982 68.2931L55.2097 66.2793L55.7544 66.2275L56.0009 68.8735L52.3715 69.2149L52.1274 66.6022Z" fill="white"/>
<path d="M52.0813 65.2299L52.1331 63.8435C52.1371 63.6191 52.172 63.3965 52.2366 63.1816C52.2999 62.9875 52.4074 62.8107 52.5508 62.6653C52.8844 62.3194 53.3531 62.1575 53.957 62.1797C54.602 62.2028 55.0888 62.3913 55.4174 62.7454C55.5531 62.8873 55.6543 63.0584 55.7132 63.2458C55.7715 63.4733 55.7932 63.7088 55.7773 63.9433L55.7292 65.3704L52.0813 65.2299ZM52.647 64.6137L55.2104 64.7086L55.2387 63.9569C55.2535 63.5575 55.1479 63.27 54.922 63.0941C54.696 62.9183 54.3768 62.8247 53.9644 62.8132C53.5717 62.7984 53.2619 62.8805 53.0352 63.0596C52.8084 63.2388 52.6876 63.5194 52.6729 63.9014L52.647 64.6137Z" fill="white"/>
<path d="M53.8959 58.8653C53.8294 58.7641 53.7836 58.6508 53.7614 58.5318C53.7391 58.4128 53.7408 58.2905 53.7663 58.1721C53.7918 58.0537 53.8406 57.9416 53.9098 57.8423C53.9791 57.7431 54.0674 57.6586 54.1697 57.5937C54.272 57.529 54.3861 57.4852 54.5055 57.4649C54.6249 57.4447 54.7471 57.4485 54.865 57.476C54.9829 57.5035 55.0941 57.5542 55.1922 57.6252C55.2903 57.6961 55.3733 57.7859 55.4364 57.8892C55.5029 57.9904 55.5486 58.1038 55.5709 58.2228C55.5931 58.3418 55.5915 58.464 55.566 58.5824C55.5405 58.7007 55.4917 58.8128 55.4224 58.9121C55.3532 59.0114 55.2648 59.0959 55.1626 59.1607C55.0603 59.2255 54.9461 59.2693 54.8268 59.2896C54.7074 59.3098 54.5852 59.306 54.4673 59.2785C54.3494 59.251 54.2381 59.2003 54.14 59.1294C54.0419 59.0584 53.9589 58.9686 53.8959 58.8653Z" fill="white"/>
<path d="M57.4187 51.7801C57.7854 51.9541 58.0706 52.2633 58.2148 52.6428C58.3486 53.0286 58.3243 53.4517 58.147 53.8196C58.0643 54.037 57.9345 54.2333 57.7671 54.3945C57.5996 54.5558 57.3986 54.6781 57.1783 54.7526C56.7363 54.9004 56.2499 54.8594 55.7192 54.6294C55.417 54.5035 55.1461 54.313 54.9255 54.0711C54.7102 53.8323 54.5697 53.5356 54.5215 53.2177C54.4733 52.8998 54.5195 52.5748 54.6544 52.2829C54.7896 51.9465 55.0329 51.6648 55.3458 51.4818C55.5044 51.3921 55.6798 51.336 55.8611 51.3169C56.0424 51.2978 56.2256 51.3162 56.3995 51.3709L56.153 51.9551C55.9521 51.9069 55.7404 51.935 55.559 52.0339C55.3736 52.1404 55.2302 52.3069 55.1523 52.5059C55.0591 52.7086 55.0395 52.9374 55.0968 53.153C55.1521 53.3562 55.2641 53.5396 55.4197 53.6817C55.5842 53.8307 55.773 53.9503 55.978 54.0353C56.1331 54.1031 56.2963 54.1507 56.4636 54.1771C56.6192 54.2011 56.7775 54.2011 56.9331 54.1771C57.0871 54.1535 57.2324 54.0902 57.3546 53.9934C57.4892 53.886 57.5936 53.7454 57.6577 53.5855C57.8722 53.0876 57.7079 52.6797 57.1648 52.3617L57.4187 51.7801Z" fill="white"/>
<path d="M57.3214 47.4608L57.7835 47.7369L56.7643 49.4462L57.595 49.9392L58.5427 48.3519L58.9826 48.6206L58.0361 50.2116L58.9593 50.7625L59.9969 49.026L60.4677 49.3082L59.1059 51.5857L55.9744 49.7186L57.3214 47.4608Z" fill="white"/>
<path d="M58.0884 46.3448L59.1594 44.9891C59.3425 44.7344 59.6013 44.5438 59.8988 44.4444C60.1683 44.3623 60.4406 44.4321 60.7158 44.6539C60.8757 44.7722 60.995 44.9371 61.0573 45.1259C61.1135 45.3081 61.1091 45.5035 61.0449 45.683C61.1091 45.6303 61.1815 45.5887 61.2594 45.5597C61.3228 45.5359 61.39 45.5238 61.4577 45.524C61.5268 45.5271 61.5948 45.5421 61.6586 45.5684C61.7223 45.5916 61.7841 45.6196 61.8435 45.6521C61.8928 45.6805 61.9556 45.7199 62.0321 45.7754C62.053 45.7877 62.0912 45.8136 62.1479 45.8518L62.2613 45.9282L62.3574 45.9911L62.456 46.0527L62.5435 46.0983C62.5817 46.118 62.6125 46.1328 62.6347 46.1414L62.7099 46.1685C62.7362 46.1776 62.7635 46.1839 62.7912 46.187C62.8154 46.1888 62.8397 46.1888 62.864 46.187L62.4326 46.7219C62.4139 46.7217 62.3952 46.7192 62.3771 46.7145C62.3574 46.7145 62.3364 46.7021 62.3143 46.6948C62.2947 46.6872 62.2758 46.6781 62.2576 46.6676L62.1885 46.6307L62.1208 46.59L62.0431 46.5382L61.9667 46.4877L61.8768 46.4261C61.8349 46.3978 61.8053 46.3768 61.7893 46.3632C61.5428 46.1932 61.3469 46.1167 61.194 46.1303C61.0412 46.1439 60.8699 46.2721 60.6838 46.5074L60.1564 47.1742L61.337 48.1083L60.9537 48.6099L58.0884 46.3448ZM58.8919 46.171L59.7879 46.8846L60.3117 46.2228C60.3776 46.1418 60.4369 46.0557 60.4891 45.9652C60.5327 45.8873 60.567 45.8045 60.5914 45.7187C60.6175 45.6309 60.6123 45.5368 60.5766 45.4525C60.5316 45.3544 60.462 45.2694 60.3745 45.206C60.2984 45.1412 60.2073 45.0963 60.1095 45.0754C60.0261 45.0587 59.9394 45.07 59.8631 45.1074C59.7883 45.1431 59.719 45.1892 59.6573 45.2442C59.5876 45.3092 59.5233 45.3796 59.465 45.455L58.8919 46.171Z" fill="white"/>
<path d="M62.7515 41.1671L63.1385 41.5627L62.3091 42.3748L64.4719 44.5858L64.0135 45.0356L61.8507 42.8259L61.0201 43.6381L60.6331 43.2425L62.7515 41.1671Z" fill="white"/>
<path d="M64.0814 40.0869L66.3872 42.9103L65.8831 43.3182L63.5811 40.4948L64.0814 40.0869Z" fill="white"/>
<path d="M67.284 37.7976L67.5872 38.2462L66.0318 39.2999L66.5889 40.1232L67.9532 39.1988L68.244 39.6265L66.8785 40.5508L67.7707 41.8695L67.2384 42.2318L65.1926 39.2124L67.284 37.7976Z" fill="white"/>
<path d="M68.8657 36.918L70.6293 40.1062L70.0636 40.418L68.3013 37.2261L68.8657 36.918Z" fill="white"/>
<path d="M72.5282 35.2023L72.7439 35.6953L70.9174 36.4914L71.3044 37.3787L72.999 36.6393L73.2047 37.1138L71.5114 37.8532L71.9403 38.8391L73.7889 38.0307L74.0169 38.5323L71.5768 39.5946L70.1213 36.2523L72.5282 35.2023Z" fill="white"/>
<path d="M73.8179 34.7336L75.1525 34.354C75.3674 34.2892 75.59 34.2535 75.8144 34.248C76.0185 34.2478 76.2198 34.2955 76.4022 34.3873C76.8343 34.5968 77.1334 34.9924 77.2994 35.5741C77.4769 36.1944 77.4481 36.7157 77.2131 37.138C77.1201 37.311 76.9885 37.4603 76.8286 37.5743C76.6302 37.6999 76.413 37.7931 76.1853 37.8503L74.8173 38.241L73.8179 34.7336ZM74.577 35.0824L75.2807 37.5472L76.0041 37.3414C76.3886 37.2313 76.6277 37.0423 76.7214 36.7745C76.815 36.5066 76.8056 36.1739 76.693 35.7762C76.5846 35.3991 76.4121 35.1296 76.1754 34.9678C75.9388 34.8059 75.6344 34.7784 75.2622 34.8852L74.577 35.0824Z" fill="white"/>
<path d="M80.435 34.4897C80.5893 34.3032 80.8113 34.1855 81.0522 34.1624C81.2932 34.1393 81.5335 34.2126 81.7204 34.3664C81.8595 34.481 81.9614 34.6343 82.0134 34.8069C82.0653 34.9795 82.0649 35.1637 82.012 35.336C81.9592 35.5083 81.8565 35.6611 81.7169 35.775C81.5772 35.8889 81.4069 35.9589 81.2275 35.9759C81.048 35.9922 80.8679 35.9551 80.7095 35.8692C80.5511 35.7833 80.4217 35.6525 80.3375 35.4932C80.2533 35.3339 80.2182 35.1533 80.2364 34.9741C80.2546 34.7949 80.3254 34.625 80.44 34.486L80.435 34.4897Z" fill="white"/>
<path d="M101.876 49.2786C101.531 48.8904 101.177 48.5096 100.811 48.1436C98.6029 45.9272 95.9789 44.1686 93.0896 42.9688C90.2003 41.7688 87.1026 41.1511 83.974 41.1511C80.8454 41.1511 77.7476 41.7688 74.8583 42.9688C71.969 44.1686 69.3451 45.9272 67.137 48.1436C66.7673 48.5134 66.4148 48.8904 66.0771 49.2786C62.2623 53.6155 60.1581 59.1935 60.1581 64.9695C60.1581 70.7454 62.2623 76.3235 66.0771 80.6603C66.4148 81.0498 66.771 81.4294 67.137 81.7954C69.3456 84.0117 71.97 85.7703 74.8597 86.9702C77.7493 88.1701 80.8475 88.7878 83.9765 88.7878C87.1054 88.7878 90.2035 88.1701 93.0932 86.9702C95.9829 85.7703 98.6072 84.0117 100.816 81.7954C101.186 81.4256 101.536 81.0559 101.881 80.6603C105.691 76.3214 107.792 70.7441 107.792 64.9695C107.792 59.1949 105.691 53.6176 101.881 49.2786H101.876ZM78.7449 43.3311C76.6202 45.213 74.8419 48.2225 73.5997 51.9837C71.793 51.1575 70.0612 50.1766 68.4236 49.0518C71.2857 46.2498 74.8519 44.2732 78.7449 43.3311ZM68.4273 80.8822C70.0658 79.7608 71.7975 78.7819 73.6033 77.9564C74.8457 81.7165 76.624 84.726 78.7486 86.6079C74.855 85.6645 71.2888 83.6861 68.4273 80.8822ZM90.1323 76.4308H68.3349V68.8602H99.6032V76.4308H90.1323ZM75.097 77.3242L75.139 77.3082H83.1914V87.1674C79.8676 86.6424 76.9074 82.8232 75.097 77.3242ZM84.7516 87.1649V77.3058H92.8041L92.846 77.3218C91.0306 82.8232 88.0667 86.6424 84.7516 87.1649ZM89.1882 86.6079C91.3117 84.7309 93.09 81.7165 94.3298 77.9515C96.1352 78.7797 97.8668 79.7601 99.5059 80.8822C96.6479 83.6856 93.0849 85.664 89.1943 86.6079H89.1882ZM100.584 79.7521C99.2729 78.8524 97.9064 78.0361 96.4926 77.3082H100.474V67.9827H96.1611C96.1845 67.613 96.2018 67.2433 96.2178 66.8735C95.7012 67.0037 95.1749 67.0915 94.644 67.136C94.6305 67.4195 94.6132 67.7029 94.5935 67.984H84.7344V66.086C84.247 66.3863 83.7236 66.6235 83.1766 66.7922V67.9827H73.3175C73.2916 67.613 73.2719 67.2433 73.2559 66.8735H71.7092C71.7227 67.2433 71.7425 67.613 71.7646 67.9827H67.4574V77.3082H71.4454C70.0295 78.0358 68.6609 78.8521 67.3477 79.7521C63.8914 75.8868 61.9021 70.9306 61.7268 65.7483H66.1942V64.1893H61.7268C61.9022 59.0065 63.8915 54.0496 67.3477 50.1832C68.3854 50.8922 69.4235 51.5331 70.462 52.1058H75.2684C77.0984 46.8841 79.9699 43.2806 83.1914 42.7741V52.1304C83.7343 52.29 84.257 52.5116 84.7492 52.791V42.7741C87.9176 43.267 90.7583 46.7732 92.5847 51.8728C92.9479 51.8358 93.3128 51.8178 93.6778 51.8186C93.8812 51.8186 94.0833 51.8186 94.2829 51.8334C93.0506 48.1362 91.2845 45.1846 89.1919 43.3299C93.0849 44.2723 96.6509 46.2489 99.5132 49.0506C97.9572 50.1157 96.3177 51.0532 94.6108 51.8544C95.4278 51.9175 96.2329 52.0882 97.0053 52.3621C98.2395 51.7004 99.437 50.9726 100.593 50.182C104.047 54.0494 106.035 59.0059 106.21 64.1881H100.332C99.8887 64.794 99.3471 65.3209 98.7294 65.7471H106.206C106.033 70.9293 104.045 75.886 100.59 79.7521H100.584Z" fill="white"/>
<path d="M87.0105 64.1895H86.5299C86.2187 64.7992 85.7754 65.3319 85.2322 65.7484H88.6151C87.9971 65.3219 87.4548 64.795 87.0105 64.1895Z" fill="white"/>
<path d="M67.293 53.2039V55.9879H68.7632V62.9731H67.293V64.1894V65.7484V65.7743H71.6791H73.2368H73.8284V65.7484V64.1894V62.9731H73.2763H72.3372V57.0786V55.9879H72.543H73.8284V53.2039H72.6292H67.293Z" fill="white"/>
<path d="M85.9261 62.0204C85.9261 61.9933 85.9261 61.9649 85.9261 61.939C85.9262 61.4643 85.8345 60.9939 85.6562 60.5538C85.4579 60.0817 85.1474 59.665 84.7516 59.3399C84.2868 58.9688 83.7586 58.6849 83.1926 58.5019C82.4145 58.2502 81.6104 58.0873 80.7957 58.0163C79.5374 57.8931 78.6747 57.6565 78.6747 56.8135C78.6747 55.9706 79.753 55.7524 80.4185 55.7524C80.9592 55.742 81.4986 55.8084 82.0207 55.9497L82.0761 57.4051H85.1448V54.3697L85.077 54.3167C84.971 54.2329 84.8638 54.1565 84.7591 54.0838C84.2773 53.7481 83.7531 53.4779 83.2001 53.2803C82.3054 52.9827 81.3662 52.841 80.4234 52.8613C79.4384 52.8571 78.4628 53.0528 77.5557 53.4367C76.9622 53.6845 76.4285 54.0564 75.9905 54.5274C75.4222 55.1517 75.1136 55.9694 75.1278 56.8135C75.1278 59.9192 77.7319 60.634 80.283 60.8718C81.6632 61.0148 82.4015 61.3401 82.4015 61.9501C82.4015 62.6674 81.593 63.0803 80.4074 63.0803C79.6711 63.0796 78.9409 62.946 78.252 62.6859L78.199 61.2305H75.1168V64.373C75.2141 64.4544 75.3103 64.5332 75.4089 64.6085L75.5543 64.7181C75.6528 64.7884 75.749 64.8561 75.8476 64.9227C75.9461 64.9893 76.046 65.046 76.1446 65.1088C76.5935 65.3773 77.0725 65.5921 77.5717 65.7484C77.7591 65.8076 77.9414 65.8593 78.1386 65.9012C78.1577 65.908 78.1776 65.9126 78.1978 65.9148C78.2853 65.9345 78.374 65.9518 78.4615 65.9678L78.5207 65.9788C78.6155 65.9961 78.7092 66.0109 78.8066 66.022C78.9298 66.0417 79.0678 66.0577 79.201 66.0701C79.302 66.0799 79.4006 66.0885 79.5041 66.0922C79.5189 66.0935 79.5337 66.0935 79.5484 66.0922C79.6557 66.1009 79.7629 66.1058 79.8726 66.1095C79.9823 66.1132 80.1191 66.1095 80.2546 66.1095H80.3778C81.2206 66.1092 82.0585 65.9846 82.8649 65.7398C83.8446 65.428 84.6851 64.9166 85.2359 64.1808C85.6978 63.5564 85.9405 62.7969 85.9261 62.0204Z" fill="white"/>
<path d="M100.648 59.4893C100.648 55.9856 98.6394 53.7242 95.5437 53.0969C94.93 52.9765 94.3056 52.9182 93.6803 52.9231C91.1489 52.9231 89.0896 53.8536 87.8794 55.5285C87.1202 56.5759 86.6951 57.9143 86.6951 59.4955C86.6951 59.774 86.7074 60.0439 86.732 60.3052C86.776 60.8014 86.8714 61.2916 87.0167 61.7681C87.2882 62.6848 87.7843 63.5193 88.4599 64.1959C89.2229 64.9393 90.1628 65.4758 91.1908 65.7548C92.001 65.9815 92.839 66.093 93.6803 66.0864C94.0291 66.0864 94.3667 66.0678 94.6969 66.0358C96.4224 65.8596 97.8618 65.2323 98.8957 64.1959C100.009 63.0768 100.648 61.492 100.648 59.4893ZM96.1808 62.0428C95.7696 62.4768 95.242 62.7833 94.6612 62.9253C94.3392 63.0082 94.0079 63.0497 93.6753 63.0485C91.6641 63.0485 90.2443 61.5931 90.2443 59.4918C90.2443 57.4263 91.6443 55.9524 93.6753 55.9524C93.6987 55.9524 93.7259 55.9524 93.7492 55.9524C94.3488 55.9484 94.9399 56.0933 95.4697 56.3739C96.4926 56.9358 97.0916 58.0314 97.0916 59.4893C97.0916 60.532 96.7649 61.4168 96.1808 62.0428Z" fill="white"/>
<path d="M76.8993 73.907V74.9386H73.3154V74.1202L75.0408 72.5082C75.1736 72.3924 75.2867 72.2559 75.376 72.104C75.432 71.9998 75.4616 71.8834 75.4623 71.7651C75.4656 71.6994 75.4537 71.6338 75.4273 71.5735C75.4011 71.5132 75.3611 71.4598 75.3107 71.4176C75.1829 71.3266 75.0272 71.283 74.8708 71.2944C74.7066 71.2931 74.5448 71.333 74.3999 71.4102C74.2558 71.4879 74.1346 71.6023 74.0487 71.7417L73.0813 71.2031C73.2632 70.9028 73.5253 70.6591 73.838 70.4994C74.1948 70.3207 74.5901 70.2327 74.9891 70.2431C75.3074 70.2372 75.6238 70.295 75.9194 70.4132C76.172 70.515 76.3906 70.6858 76.5505 70.9061C76.7029 71.1222 76.7824 71.3813 76.7772 71.6456C76.7783 71.8906 76.723 72.1326 76.6158 72.3529C76.4573 72.639 76.2485 72.894 75.9996 73.106L75.1369 73.9083L76.8993 73.907Z" fill="white"/>
<path d="M81.6731 70.335V71.1508L80.055 74.9379H78.6291L80.1807 71.364H78.9705V72.0738H77.8613V70.335H81.6731Z" fill="white"/>
<path d="M83.5938 74.7478C83.2779 74.5499 83.0275 74.263 82.8741 73.9233C82.7025 73.5165 82.614 73.0794 82.614 72.6379C82.614 72.1964 82.7025 71.7593 82.8741 71.3525C83.0275 71.0124 83.2779 70.7252 83.5938 70.5268C83.9123 70.343 84.2736 70.2461 84.6414 70.2461C85.0092 70.2461 85.3704 70.343 85.6889 70.5268C86.0048 70.7252 86.2552 71.0124 86.4086 71.3525C86.5802 71.7593 86.6687 72.1964 86.6687 72.6379C86.6687 73.0794 86.5802 73.5165 86.4086 73.9233C86.2552 74.263 86.0048 74.5499 85.6889 74.7478C85.3709 74.9329 85.0094 75.0306 84.6414 75.0306C84.2733 75.0306 83.9118 74.9329 83.5938 74.7478ZM85.1688 73.6472C85.2986 73.4336 85.3631 73.0972 85.3623 72.6379C85.3615 72.1786 85.297 71.8422 85.1688 71.6286C85.1188 71.5322 85.0433 71.4513 84.9505 71.3949C84.8577 71.3385 84.7512 71.3087 84.6426 71.3087C84.534 71.3087 84.4275 71.3385 84.3347 71.3949C84.2419 71.4513 84.1664 71.5322 84.1164 71.6286C83.9873 71.8405 83.9228 72.177 83.9228 72.6379C83.9228 73.0988 83.9873 73.4353 84.1164 73.6472C84.1664 73.7436 84.2419 73.8245 84.3347 73.8808C84.4275 73.9373 84.534 73.9671 84.6426 73.9671C84.7512 73.9671 84.8577 73.9373 84.9505 73.8808C85.0433 73.8245 85.1188 73.7436 85.1688 73.6472Z" fill="white"/>
<path d="M88.755 74.7478C88.4394 74.5495 88.1891 74.2628 88.0353 73.9233C87.8636 73.5165 87.7753 73.0794 87.7753 72.6379C87.7753 72.1964 87.8636 71.7593 88.0353 71.3525C88.1891 71.0127 88.4394 70.7255 88.755 70.5268C89.0735 70.343 89.4348 70.2461 89.8026 70.2461C90.1703 70.2461 90.5316 70.343 90.8501 70.5268C91.1654 70.7259 91.4156 71.0129 91.5698 71.3525C91.7403 71.7596 91.8281 72.1966 91.8281 72.6379C91.8281 73.0793 91.7403 73.5162 91.5698 73.9233C91.4155 74.2625 91.1654 74.5491 90.8501 74.7478C90.532 74.9328 90.1706 75.0302 89.8026 75.0302C89.4345 75.0302 89.0732 74.9328 88.755 74.7478ZM90.33 73.6472C90.4599 73.4336 90.5247 73.0972 90.5247 72.6379C90.5247 72.1786 90.4599 71.8422 90.33 71.6286C90.2799 71.5324 90.2044 71.4519 90.1118 71.3958C90.019 71.3396 89.9128 71.3098 89.8044 71.3098C89.6961 71.3098 89.5898 71.3396 89.4971 71.3958C89.4043 71.4519 89.3289 71.5324 89.2788 71.6286C89.1498 71.8405 89.0849 72.177 89.0841 72.6379C89.0832 73.0988 89.1481 73.4353 89.2788 73.6472C89.3289 73.7433 89.4043 73.8239 89.4971 73.8801C89.5898 73.9362 89.6961 73.9659 89.8044 73.9659C89.9128 73.9659 90.019 73.9362 90.1118 73.8801C90.2044 73.8239 90.2799 73.7433 90.33 73.6472Z" fill="white"/>
<path d="M94.8588 70.335V74.9379H93.5562V71.3418H92.7021V70.335H94.8588Z" fill="white"/>
</g>
<path d="M35.6877 116.2V126H37.4377V116.2H35.6877ZM42.7632 126.14C43.3792 126.14 43.9252 126.056 44.4012 125.902C44.8772 125.748 45.2832 125.538 45.6052 125.272C45.9272 125.006 46.1792 124.698 46.3612 124.334C46.5292 123.984 46.6132 123.606 46.6132 123.2C46.6132 122.598 46.4732 122.122 46.2072 121.772C45.9272 121.422 45.5772 121.156 45.1712 120.96C44.7512 120.764 44.3032 120.61 43.8132 120.498C43.3232 120.4 42.8752 120.288 42.4692 120.162C42.0492 120.05 41.6992 119.896 41.4332 119.7C41.1532 119.518 41.0132 119.238 41.0132 118.86C41.0132 118.51 41.1532 118.202 41.4472 117.964C41.7272 117.726 42.1612 117.6 42.7632 117.6C43.2952 117.6 43.7152 117.698 44.0372 117.894C44.3452 118.09 44.5552 118.37 44.6532 118.72H46.4032C46.2632 117.922 45.8992 117.278 45.2972 116.788C44.6952 116.298 43.8412 116.06 42.7632 116.06C42.2452 116.06 41.7692 116.116 41.3352 116.242C40.9012 116.368 40.5372 116.564 40.2292 116.802C39.9212 117.04 39.6832 117.334 39.5152 117.684C39.3472 118.034 39.2632 118.426 39.2632 118.86C39.2632 119.35 39.3472 119.742 39.5012 120.064C39.6552 120.386 39.8652 120.638 40.1312 120.848C40.3832 121.058 40.6772 121.226 41.0132 121.352C41.3352 121.478 41.6852 121.576 42.0352 121.66C42.3852 121.744 42.7212 121.814 43.0572 121.884C43.3792 121.954 43.6732 122.052 43.9392 122.15C44.1912 122.248 44.4012 122.388 44.5552 122.542C44.7092 122.71 44.7932 122.934 44.7932 123.2C44.7932 123.62 44.6252 123.956 44.3032 124.208C43.9812 124.474 43.4632 124.6 42.7632 124.6C42.2032 124.6 41.7412 124.474 41.3772 124.236C41.0132 123.998 40.7752 123.648 40.6632 123.2H38.9132C39.0532 124.152 39.4732 124.88 40.1592 125.384C40.8452 125.888 41.7132 126.14 42.7632 126.14ZM52.2864 126.14C52.9724 126.14 53.5884 126.028 54.1484 125.804C54.7084 125.58 55.1844 125.258 55.5904 124.824C55.9964 124.39 56.3044 123.872 56.5144 123.242C56.7244 122.612 56.8364 121.898 56.8364 121.1C56.8364 120.302 56.7244 119.588 56.5144 118.958C56.3044 118.328 55.9964 117.81 55.5904 117.376C55.1844 116.942 54.7084 116.62 54.1484 116.396C53.5884 116.172 52.9724 116.06 52.2864 116.06C51.6004 116.06 50.9704 116.172 50.4244 116.396C49.8644 116.62 49.3884 116.942 48.9824 117.376C48.5764 117.81 48.2684 118.328 48.0584 118.958C47.8484 119.588 47.7364 120.302 47.7364 121.1C47.7364 121.898 47.8484 122.612 48.0584 123.242C48.2684 123.872 48.5764 124.39 48.9824 124.824C49.3884 125.258 49.8644 125.58 50.4244 125.804C50.9704 126.028 51.6004 126.14 52.2864 126.14ZM52.2864 124.6C51.4464 124.6 50.7744 124.306 50.2564 123.718C49.7384 123.13 49.4864 122.262 49.4864 121.1C49.4864 119.938 49.7384 119.07 50.2564 118.482C50.7744 117.894 51.4464 117.6 52.2864 117.6C53.1264 117.6 53.7984 117.894 54.3164 118.482C54.8344 119.07 55.0864 119.938 55.0864 121.1C55.0864 122.262 54.8344 123.13 54.3164 123.718C53.7984 124.306 53.1264 124.6 52.2864 124.6ZM61.1059 124.46V126H68.1059V124.46H63.4859L66.7059 121.38C66.8599 121.226 67.0279 121.072 67.1819 120.89C67.3359 120.708 67.4619 120.526 67.5879 120.316C67.6999 120.106 67.7979 119.896 67.8679 119.658C67.9379 119.434 67.9659 119.196 67.9659 118.93C67.9659 118.51 67.8959 118.118 67.7419 117.768C67.5879 117.418 67.3779 117.124 67.0979 116.858C66.8039 116.606 66.4539 116.41 66.0199 116.27C65.5859 116.13 65.0959 116.06 64.5359 116.06C64.0179 116.06 63.5559 116.13 63.1499 116.284C62.7439 116.438 62.3939 116.634 62.1139 116.9C61.8199 117.166 61.5959 117.474 61.4419 117.824C61.2739 118.188 61.1619 118.58 61.1059 119H62.8559C62.9259 118.58 63.1219 118.244 63.4159 117.978C63.7099 117.726 64.0739 117.6 64.5359 117.6C65.0959 117.6 65.5019 117.726 65.7679 117.978C66.0199 118.244 66.1459 118.58 66.1459 119C66.1459 119.28 66.0899 119.532 65.9639 119.742C65.8379 119.966 65.6699 120.19 65.4459 120.4L61.1059 124.46ZM73.5719 117.74L69.9319 126H71.8219L75.4619 117.74V116.2H68.8819V117.74H73.5719ZM80.3023 126.14C80.9043 126.14 81.4503 126.028 81.9543 125.818C82.4583 125.608 82.8923 125.3 83.2703 124.88C83.6343 124.46 83.9143 123.928 84.1243 123.298C84.3343 122.668 84.4323 121.94 84.4323 121.1C84.4323 120.26 84.3343 119.518 84.1243 118.888C83.9143 118.258 83.6343 117.74 83.2703 117.32C82.8923 116.9 82.4583 116.578 81.9543 116.368C81.4503 116.158 80.9043 116.06 80.3023 116.06C79.7003 116.06 79.1543 116.158 78.6503 116.368C78.1463 116.578 77.7123 116.9 77.3483 117.32C76.9703 117.74 76.6903 118.258 76.4803 118.888C76.2703 119.518 76.1723 120.26 76.1723 121.1C76.1723 121.94 76.2703 122.668 76.4803 123.298C76.6903 123.928 76.9703 124.46 77.3483 124.88C77.7123 125.3 78.1463 125.608 78.6503 125.818C79.1543 126.028 79.7003 126.14 80.3023 126.14ZM80.3023 124.53C79.9803 124.53 79.6863 124.46 79.4063 124.32C79.1123 124.194 78.8603 123.984 78.6503 123.704C78.4263 123.424 78.2443 123.074 78.1183 122.64C77.9923 122.206 77.9223 121.702 77.9223 121.1C77.9223 120.498 77.9923 119.994 78.1183 119.56C78.2443 119.126 78.4263 118.776 78.6503 118.496C78.8603 118.216 79.1123 118.006 79.4063 117.866C79.6863 117.74 79.9803 117.67 80.3023 117.67C80.6243 117.67 80.9183 117.74 81.2123 117.866C81.4923 118.006 81.7443 118.216 81.9683 118.496C82.1783 118.776 82.3603 119.126 82.4863 119.56C82.6123 119.994 82.6823 120.498 82.6823 121.1C82.6823 121.702 82.6123 122.206 82.4863 122.64C82.3603 123.074 82.1783 123.424 81.9683 123.704C81.7443 123.984 81.4923 124.194 81.2123 124.32C80.9183 124.46 80.6243 124.53 80.3023 124.53ZM89.6812 126.14C90.2832 126.14 90.8292 126.028 91.3332 125.818C91.8372 125.608 92.2712 125.3 92.6492 124.88C93.0132 124.46 93.2932 123.928 93.5032 123.298C93.7132 122.668 93.8112 121.94 93.8112 121.1C93.8112 120.26 93.7132 119.518 93.5032 118.888C93.2932 118.258 93.0132 117.74 92.6492 117.32C92.2712 116.9 91.8372 116.578 91.3332 116.368C90.8292 116.158 90.2832 116.06 89.6812 116.06C89.0792 116.06 88.5332 116.158 88.0292 116.368C87.5252 116.578 87.0912 116.9 86.7272 117.32C86.3492 117.74 86.0692 118.258 85.8592 118.888C85.6492 119.518 85.5512 120.26 85.5512 121.1C85.5512 121.94 85.6492 122.668 85.8592 123.298C86.0692 123.928 86.3492 124.46 86.7272 124.88C87.0912 125.3 87.5252 125.608 88.0292 125.818C88.5332 126.028 89.0792 126.14 89.6812 126.14ZM89.6812 124.53C89.3592 124.53 89.0652 124.46 88.7852 124.32C88.4912 124.194 88.2392 123.984 88.0292 123.704C87.8052 123.424 87.6232 123.074 87.4972 122.64C87.3712 122.206 87.3012 121.702 87.3012 121.1C87.3012 120.498 87.3712 119.994 87.4972 119.56C87.6232 119.126 87.8052 118.776 88.0292 118.496C88.2392 118.216 88.4912 118.006 88.7852 117.866C89.0652 117.74 89.3592 117.67 89.6812 117.67C90.0032 117.67 90.2972 117.74 90.5912 117.866C90.8712 118.006 91.1232 118.216 91.3472 118.496C91.5572 118.776 91.7392 119.126 91.8652 119.56C91.9912 119.994 92.0612 120.498 92.0612 121.1C92.0612 121.702 91.9912 122.206 91.8652 122.64C91.7392 123.074 91.5572 123.424 91.3472 123.704C91.1232 123.984 90.8712 124.194 90.5912 124.32C90.2972 124.46 90.0032 124.53 89.6812 124.53ZM96.7501 118.93V126H98.5001V116.2H96.7501V116.816C96.7501 117.194 96.5681 117.39 96.1901 117.39H94.7901V118.93H96.7501ZM101.092 126.07C101.372 126.07 101.61 125.972 101.792 125.79C101.974 125.608 102.072 125.37 102.072 125.09C102.072 124.81 101.974 124.572 101.792 124.39C101.61 124.208 101.372 124.11 101.092 124.11C100.812 124.11 100.574 124.208 100.392 124.39C100.21 124.572 100.112 124.81 100.112 125.09C100.112 125.37 100.21 125.608 100.392 125.79C100.574 125.972 100.812 126.07 101.092 126.07ZM101.092 120.47C101.372 120.47 101.61 120.372 101.792 120.19C101.974 120.008 102.072 119.77 102.072 119.49C102.072 119.21 101.974 118.972 101.792 118.79C101.61 118.608 101.372 118.51 101.092 118.51C100.812 118.51 100.574 118.608 100.392 118.79C100.21 118.972 100.112 119.21 100.112 119.49C100.112 119.77 100.21 120.008 100.392 120.19C100.574 120.372 100.812 120.47 101.092 120.47ZM103.188 124.46V126H110.188V124.46H105.568L108.788 121.38C108.942 121.226 109.11 121.072 109.264 120.89C109.418 120.708 109.544 120.526 109.67 120.316C109.782 120.106 109.88 119.896 109.95 119.658C110.02 119.434 110.048 119.196 110.048 118.93C110.048 118.51 109.978 118.118 109.824 117.768C109.67 117.418 109.46 117.124 109.18 116.858C108.886 116.606 108.536 116.41 108.102 116.27C107.668 116.13 107.178 116.06 106.618 116.06C106.1 116.06 105.638 116.13 105.232 116.284C104.826 116.438 104.476 116.634 104.196 116.9C103.902 117.166 103.678 117.474 103.524 117.824C103.356 118.188 103.244 118.58 103.188 119H104.938C105.008 118.58 105.204 118.244 105.498 117.978C105.792 117.726 106.156 117.6 106.618 117.6C107.178 117.6 107.584 117.726 107.85 117.978C108.102 118.244 108.228 118.58 108.228 119C108.228 119.28 108.172 119.532 108.046 119.742C107.92 119.966 107.752 120.19 107.528 120.4L103.188 124.46ZM115.234 126.14C115.836 126.14 116.382 126.028 116.886 125.818C117.39 125.608 117.824 125.3 118.202 124.88C118.566 124.46 118.846 123.928 119.056 123.298C119.266 122.668 119.364 121.94 119.364 121.1C119.364 120.26 119.266 119.518 119.056 118.888C118.846 118.258 118.566 117.74 118.202 117.32C117.824 116.9 117.39 116.578 116.886 116.368C116.382 116.158 115.836 116.06 115.234 116.06C114.632 116.06 114.086 116.158 113.582 116.368C113.078 116.578 112.644 116.9 112.28 117.32C111.902 117.74 111.622 118.258 111.412 118.888C111.202 119.518 111.104 120.26 111.104 121.1C111.104 121.94 111.202 122.668 111.412 123.298C111.622 123.928 111.902 124.46 112.28 124.88C112.644 125.3 113.078 125.608 113.582 125.818C114.086 126.028 114.632 126.14 115.234 126.14ZM115.234 124.53C114.912 124.53 114.618 124.46 114.338 124.32C114.044 124.194 113.792 123.984 113.582 123.704C113.358 123.424 113.176 123.074 113.05 122.64C112.924 122.206 112.854 121.702 112.854 121.1C112.854 120.498 112.924 119.994 113.05 119.56C113.176 119.126 113.358 118.776 113.582 118.496C113.792 118.216 114.044 118.006 114.338 117.866C114.618 117.74 114.912 117.67 115.234 117.67C115.556 117.67 115.85 117.74 116.144 117.866C116.424 118.006 116.676 118.216 116.9 118.496C117.11 118.776 117.292 119.126 117.418 119.56C117.544 119.994 117.614 120.498 117.614 121.1C117.614 121.702 117.544 122.206 117.418 122.64C117.292 123.074 117.11 123.424 116.9 123.704C116.676 123.984 116.424 124.194 116.144 124.32C115.85 124.46 115.556 124.53 115.234 124.53ZM122.303 118.93V126H124.053V116.2H122.303V116.816C122.303 117.194 122.121 117.39 121.743 117.39H120.343V118.93H122.303ZM129.206 126.14C129.738 126.14 130.228 126.07 130.662 125.93C131.096 125.804 131.46 125.608 131.768 125.37C132.076 125.132 132.314 124.838 132.482 124.488C132.65 124.138 132.734 123.76 132.734 123.34C132.734 122.78 132.594 122.304 132.3 121.898C132.006 121.492 131.614 121.212 131.124 121.03C131.586 120.848 131.936 120.582 132.202 120.204C132.468 119.84 132.594 119.392 132.594 118.86C132.594 118.44 132.51 118.062 132.356 117.712C132.202 117.362 131.978 117.068 131.684 116.83C131.39 116.592 131.026 116.396 130.62 116.256C130.2 116.13 129.738 116.06 129.234 116.06C128.24 116.06 127.442 116.298 126.812 116.788C126.182 117.278 125.804 118.006 125.664 119H127.414C127.484 118.538 127.694 118.188 128.03 117.95C128.366 117.712 128.744 117.6 129.164 117.6C129.724 117.6 130.144 117.74 130.424 118.006C130.704 118.272 130.844 118.608 130.844 119C130.844 119.392 130.704 119.714 130.424 119.952C130.144 120.204 129.724 120.33 129.164 120.33H128.394V121.8H129.164C129.724 121.8 130.172 121.926 130.494 122.178C130.816 122.444 130.984 122.78 130.984 123.2C130.984 123.62 130.816 123.956 130.494 124.208C130.172 124.474 129.724 124.6 129.164 124.6C128.674 124.6 128.254 124.474 127.904 124.236C127.554 123.998 127.344 123.662 127.274 123.2H125.524C125.566 123.704 125.678 124.138 125.888 124.516C126.098 124.894 126.364 125.188 126.7 125.426C127.022 125.664 127.4 125.846 127.834 125.958C128.268 126.084 128.716 126.14 129.206 126.14Z" fill="white"/>
<defs>
<clipPath id="clip0_5909_5770">
<rect width="70" height="70" fill="white" transform="translate(49 30)"/>
</clipPath>
</defs>
</svg>
