<svg width="162" height="130" viewBox="0 0 162 130" fill="none" xmlns="http://www.w3.org/2000/svg">
<path d="M104.204 62.1928C104.017 63.0233 103.427 63.8871 102.5 64.1994C101.023 64.8189 99.0243 64.6473 97.6562 63.9242C96.5085 63.1603 96.362 61.883 96.2129 60.6724C96.1013 58.2883 95.9211 55.7622 96.6227 53.5803C97.1725 52.2291 98.6897 51.8823 100.062 51.7823C101.505 51.7823 102.906 51.9909 103.798 53.0966C104.352 53.8901 104.317 54.9292 104.425 55.8633C104.387 57.8354 104.573 60.185 104.204 62.1928ZM112.934 52.3364C112.267 50.6729 110.899 49.1859 109.234 48.1172C104.425 45.2122 97.0986 45.0025 92.1461 47.6298C89.4436 48.9415 87.6696 51.5368 87.1158 54.206C86.1147 58.5943 86.3728 63.8168 89.9234 67.1055C94.0693 70.5621 100.098 71.3248 105.46 69.9056C105.713 69.86 106.521 69.6674 107.079 69.3848L107.237 69.3207C108.902 68.6617 110.489 67.5893 111.675 66.1368C114.412 62.331 114.599 56.6235 112.934 52.3364Z" fill="white"/>
<path d="M60.3694 64.34C59.1505 64.2697 57.781 64.3709 56.5997 64.2339L56.6347 52.0921L56.7086 51.9896L60.3694 51.9563C60.4083 49.9855 60.4434 47.8716 60.3305 46.0761L46.39 46.039L44.0934 46.0761C44.0584 47.9074 44.0584 50.0509 44.0934 51.9193C45.3539 51.9563 46.5352 51.9193 47.7555 52.0266V63.7859L47.7205 64.2697L44.0584 64.34C43.9805 66.2738 43.9805 68.1434 44.0584 70.0463H60.3694" fill="white"/>
<path d="M87.6695 82.6028L85.9305 83.1211C85.6335 82.9829 85.3768 82.7743 85.1161 82.5657L85.19 82.4621C87.5567 81.1491 89.7016 79.5559 91.7363 77.653C92.7361 78.0331 93.6983 78.5538 94.5879 79.1388C92.5169 80.7023 90.1114 81.7352 87.6695 82.6028ZM84.1176 83.5678C80.1987 84.3675 75.8311 84.3995 71.9121 83.5012C71.8382 83.3296 72.095 83.2926 72.2078 83.1914C75.6469 81.0799 81.0105 81.0799 84.3782 83.3592C84.4872 83.5678 84.1915 83.5012 84.1176 83.5678ZM70.3949 83.1211C67.2878 82.3572 64.4011 81.0429 61.7388 79.2461V79.1388C62.6271 78.6242 63.5167 78.0701 64.4763 77.6863C66.5849 79.6645 68.7661 81.1491 71.1354 82.5657C70.9486 82.7743 70.653 82.9829 70.3949 83.1211ZM65.6227 77.2063C67.0686 76.546 68.582 76.0598 70.1342 75.6834L70.286 75.7192C71.3545 77.6221 72.6876 79.4189 74.0181 81.2169C73.5033 81.4958 72.8718 81.6637 72.3556 81.9438C69.9151 80.8035 67.5834 79.2104 65.6227 77.3075V77.2063ZM71.5802 75.3367C73.5033 74.9899 75.5004 74.7135 77.5701 74.7135L77.609 80.5653C76.8296 80.7332 75.9789 80.7332 75.2384 80.9109C73.7212 79.2104 72.4659 77.3778 71.3934 75.4737L71.5802 75.3367ZM78.7164 74.7135C80.8263 74.7505 82.9362 74.9591 84.8944 75.407L84.932 75.5107C83.8984 77.3778 82.6003 79.1795 81.1959 80.8714C80.5657 80.9417 79.9756 80.7023 79.348 80.6665L78.7164 80.595C78.6425 78.5538 78.6036 76.7558 78.7164 74.7135ZM86.0044 75.7538L86.1146 75.6834C87.7084 76.029 89.2218 76.514 90.6288 77.1692C89.4435 78.4465 87.9263 79.5559 86.5231 80.4888C85.6724 80.9726 84.8191 81.4958 83.9308 81.9068L82.3436 81.2515L82.4525 81.0121C83.7856 79.3177 84.9709 77.5851 86.0044 75.7538ZM101.427 72.6403C99.8749 74.7505 97.9142 76.7916 95.7719 78.3798C95.6954 78.4872 95.4723 78.4465 95.4023 78.3465C94.4738 77.7937 93.4766 77.3432 92.5869 76.7916C93.7722 75.444 94.9199 74.0952 95.8082 72.6032H94.6579C93.7372 73.8867 92.7737 75.2355 91.5534 76.3745C89.9233 75.7538 88.4463 75.1985 86.7812 74.7814L86.5971 74.6493C86.8551 73.9508 87.3349 73.2956 87.4828 72.6032H86.4842L85.487 74.4716C83.3058 74.0224 80.9002 73.7793 78.6814 73.6423C78.5686 73.3326 78.7164 72.8821 78.5686 72.6032H77.609C77.5312 73.0191 77.7179 73.3326 77.4961 73.6793C75.2034 73.7793 72.9846 74.0224 70.8397 74.442L69.8373 72.6032C69.4716 72.6032 69.0618 72.5354 68.805 72.6403L69.7283 74.6802L69.6194 74.7814C67.9504 75.2355 66.3281 75.7908 64.737 76.4091L64.5891 76.3387C63.5517 75.2651 62.5532 74.0952 61.7388 72.9192C61.5546 72.3281 60.8142 72.6736 60.4096 72.6032C61.294 74.1261 62.4793 75.4737 63.6619 76.8595C62.6634 77.4136 61.6675 78.0331 60.6274 78.4872C58.4086 76.8928 56.3415 74.8184 54.7854 72.6403C54.3406 72.5724 54.0488 72.6032 53.6001 72.6403C56.2637 76.5843 60.4096 80.0409 64.737 82.082C64.737 82.082 64.737 82.0511 64.7759 82.0511C64.8083 82.0511 64.8809 82.1153 64.8083 82.1523C67.7313 83.5012 70.8397 84.4687 74.131 84.8858C85.487 86.3025 96.3256 81.7044 102.612 72.6403C102.284 72.6032 101.798 72.6032 101.427 72.6403Z" fill="white"/>
<path d="M61.591 36.9428C63.9214 35.3188 66.5111 34.1082 69.2486 33.2777C69.3614 33.1703 69.4327 33.0692 69.5806 33.0692V33.1395C69.8762 33.2074 70.0993 32.8952 70.3561 33.1C70.5791 33.2777 70.8398 33.4159 71.0226 33.5875C68.7299 34.9326 66.4722 36.5257 64.4012 38.4607C63.4039 38.1201 62.4793 37.5994 61.591 37.0107V36.9428ZM84.1565 32.652V32.7236C80.9353 34.9326 75.7222 35.1411 72.3207 33.1C72.1314 32.9618 71.7644 32.8952 71.7255 32.652C75.647 31.7907 80.2688 31.7216 84.1565 32.652ZM85.6336 32.9988C88.742 33.7615 91.6624 35.0733 94.326 36.8725L94.2521 37.0107L91.7013 38.3583H91.5146C89.5564 36.4949 87.2637 34.8709 84.932 33.5875C85.0059 33.3444 85.3768 33.1703 85.6336 32.9988ZM90.3708 38.9136C88.9249 39.4998 87.4439 40.0539 85.8566 40.3698C84.7103 38.5372 83.4537 36.7047 82.0441 34.9326C82.5615 34.6636 83.193 34.455 83.7468 34.1786C86.1562 35.3188 88.484 36.9428 90.4421 38.8063L90.3708 38.9136ZM78.5687 41.3385C78.4947 39.4998 78.5323 37.4611 78.5687 35.5582C79.3091 35.457 80.1209 35.3497 80.8614 35.2485C82.3047 36.9737 83.7117 38.7446 84.674 40.6388C82.6756 41.093 80.6396 41.3385 78.5687 41.3385ZM77.4223 41.3015C76.3887 41.4385 75.4641 41.2694 74.4241 41.1942C73.4282 41.0559 72.169 40.9547 71.1717 40.6388C72.2442 38.7446 73.5034 36.9095 75.0193 35.2176L77.386 35.5249C77.4962 37.3192 77.4223 39.3974 77.4223 41.3015ZM70.063 40.3698L69.9151 40.3994C68.3979 40.023 66.917 39.5689 65.5125 38.984L65.5838 38.7754C67.6185 36.9428 69.7634 35.42 72.1314 34.2464C72.6877 34.455 73.2414 34.6253 73.7952 34.8709L73.6862 35.1411C72.2792 36.8046 71.1717 38.6002 70.063 40.3698ZM54.7115 43.4093C55.5998 42.2332 56.5984 41.093 57.7071 39.986C58.6667 39.1222 59.555 38.2917 60.5925 37.666C61.5547 38.2546 62.6272 38.7446 63.5518 39.2962C62.4054 40.6388 61.224 41.9938 60.3694 43.4438C60.6275 43.55 61.1112 43.5166 61.4808 43.4438C62.4054 42.1653 63.4039 40.8844 64.5892 39.7441C66.1765 40.2982 67.7313 40.8844 69.3614 41.3015L69.5067 41.4385L68.582 43.4438C68.9905 43.5166 69.2486 43.4796 69.6545 43.4438C69.9865 42.8577 70.2432 42.2024 70.6141 41.61C72.7616 42.0642 75.0193 42.3036 77.3121 42.3702C77.609 42.6158 77.386 43.1341 77.4962 43.4438H78.4947C78.6037 43.1032 78.4597 42.717 78.6037 42.4097C80.7525 42.3036 83.0063 42.095 85.0838 41.61L85.264 41.647L86.2625 43.4438C86.5971 43.4438 87.038 43.5166 87.2987 43.3723L86.3715 41.3719L86.4493 41.3015C88.1468 40.8844 89.7405 40.2624 91.3667 39.6429C92.517 40.7832 93.5855 42.132 94.5517 43.4438C94.9576 43.4438 95.3635 43.4796 95.6604 43.3723C95.2143 42.6158 94.658 41.8556 94.0693 41.1942C93.5855 40.5376 93.0707 39.9527 92.4392 39.3307V39.153L95.0289 37.7363L95.4024 37.5994C97.6562 39.2234 99.652 41.1942 101.243 43.3723C101.688 43.3723 102.059 43.5166 102.428 43.3426C97.4694 36.2876 89.2957 31.7512 80.4594 31.0996L80.4205 31.1662L80.3466 31.0996C79.348 30.9972 78.1239 30.9577 77.0514 31.0589C76.6455 31.028 76.1657 31.0589 75.6833 31.0996C66.808 31.7512 58.6343 36.079 53.5262 43.4438C53.8971 43.4093 54.3406 43.55 54.7115 43.4093Z" fill="white"/>
<path d="M77.4613 64.6103C73.9833 65.5111 70.2084 64.825 67.6939 62.331C67.3995 61.9842 67.2141 61.5733 66.9171 61.2277L61.9257 61.2611C61.8492 64.0611 61.8129 67.2795 61.9257 70.0475L67.4708 70.0142L67.5447 68.3532C68.1763 68.6283 68.8052 68.9739 69.4329 69.2836C73.2805 70.8064 78.2342 71.1532 82.0442 69.2836C84.8194 67.8349 86.3003 65.0336 85.8918 62.0175C85.4872 59.0817 82.5266 56.4162 79.531 55.6918L70.5792 53.2348L69.9153 52.9226C69.6196 52.6832 69.4329 52.3734 69.5068 51.9909C70.2084 50.8494 71.8384 51.1961 73.0587 51.227C75.6471 51.5738 78.3107 52.4043 79.828 54.6539C81.4542 54.6539 83.341 54.6848 85.1163 54.6169C85.1902 51.7823 85.0839 49.2932 85.0411 46.4216C83.3773 46.3858 81.3414 46.3858 79.6802 46.4586C79.6049 46.8696 79.7502 47.4545 79.5673 47.8716L77.8672 47.0065C73.7953 45.3825 68.0998 45.2122 64.4013 47.7371C61.9958 49.3944 61.2592 52.3734 61.8868 54.9995C62.3666 57.4886 64.8811 59.3211 67.288 60.185C70.5792 61.2907 74.0183 62.0903 77.3511 63.1603C77.6831 63.3009 78.124 63.6144 78.054 63.9945C78.054 64.3005 77.7181 64.4795 77.4613 64.6103Z" fill="white"/>
<path d="M69.9081 95.0395V93.2551C69.9081 92.5468 69.5139 92.2925 68.8862 92.2925C68.2573 92.2925 67.8631 92.5468 67.8631 93.2551V95.0395C67.8631 95.7466 68.2573 96.0169 68.8862 96.0169C69.5139 96.0169 69.9081 95.7466 69.9081 95.0395ZM71.8805 98.4233C71.8805 100.093 70.9118 101 68.8681 101C66.9307 101 65.9269 100.093 65.9269 98.5072V98.253H67.7917V98.6072C67.7917 99.3143 68.186 99.5845 68.8136 99.5845C69.5139 99.5845 69.9081 99.3143 69.9081 98.3665V96.5685H69.8718C69.5307 97.135 68.9575 97.4324 68.0783 97.4324C66.6259 97.4324 65.8906 96.6253 65.8906 95.1666V93.3538C65.8906 91.7681 66.9488 90.8623 68.8862 90.8623C70.8223 90.8623 71.8805 91.7681 71.8805 93.3538" fill="white"/>
<path d="M75.0007 98.6072C75.0007 99.3143 75.395 99.5845 76.0226 99.5845C76.6503 99.5845 77.0445 99.3143 77.0445 98.6072V93.2551C77.0445 92.5468 76.6503 92.279 76.0226 92.279C75.395 92.279 75.0007 92.5468 75.0007 93.2551V98.6072ZM73.0283 93.3538C73.0283 91.7693 74.0865 90.8623 76.0226 90.8623C77.96 90.8623 79.0169 91.7693 79.0169 93.3538V98.5085C79.0169 100.093 77.96 101 76.0226 101C74.0865 101 73.0283 100.093 73.0283 98.5085" fill="white"/>
<path d="M82.1021 98.6072C82.1021 99.3143 82.4963 99.5845 83.1239 99.5845C83.7516 99.5845 84.1458 99.3143 84.1458 98.6072V93.2551C84.1458 92.5468 83.7516 92.279 83.1239 92.279C82.4963 92.279 82.1021 92.5468 82.1021 93.2551V98.6072ZM80.1296 93.3538C80.1296 91.7693 81.1878 90.8623 83.1239 90.8623C85.0614 90.8623 86.1195 91.7693 86.1195 93.3538V98.5085C86.1195 100.093 85.0614 101 83.1239 101C81.1878 101 80.1296 100.093 80.1296 98.5085" fill="white"/>
<path d="M88.6118 92.2222C90.1368 92.2222 90.4766 91.641 90.7814 90.9758H92.108V100.886H90.1368V93.3254H88.6118" fill="white"/>
<path d="M34.4895 116.2H36.2395V126H34.4895V116.2ZM41.5649 126.14C40.5149 126.14 39.6469 125.888 38.9609 125.384C38.2749 124.88 37.8549 124.152 37.7149 123.2H39.4649C39.5769 123.648 39.8149 123.998 40.1789 124.236C40.5429 124.474 41.0049 124.6 41.5649 124.6C42.2649 124.6 42.7829 124.474 43.1049 124.208C43.4269 123.956 43.5949 123.62 43.5949 123.2C43.5949 122.934 43.5109 122.71 43.3569 122.542C43.2029 122.388 42.9929 122.248 42.7409 122.15C42.4749 122.052 42.1809 121.954 41.8589 121.884C41.5229 121.814 41.1869 121.744 40.8369 121.66C40.4869 121.576 40.1369 121.478 39.8149 121.352C39.4789 121.226 39.1849 121.058 38.9329 120.848C38.6669 120.638 38.4569 120.386 38.3029 120.064C38.1489 119.742 38.0649 119.35 38.0649 118.86C38.0649 118.426 38.1489 118.034 38.3169 117.684C38.4849 117.334 38.7229 117.04 39.0309 116.802C39.3389 116.564 39.7029 116.368 40.1369 116.242C40.5709 116.116 41.0469 116.06 41.5649 116.06C42.6429 116.06 43.4969 116.298 44.0989 116.788C44.7009 117.278 45.0649 117.922 45.2049 118.72H43.4549C43.3569 118.37 43.1469 118.09 42.8389 117.894C42.5169 117.698 42.0969 117.6 41.5649 117.6C40.9629 117.6 40.5289 117.726 40.2489 117.964C39.9549 118.202 39.8149 118.51 39.8149 118.86C39.8149 119.238 39.9549 119.518 40.2349 119.7C40.5009 119.896 40.8509 120.05 41.2709 120.162C41.6769 120.288 42.1249 120.4 42.6149 120.498C43.1049 120.61 43.5529 120.764 43.9729 120.96C44.3789 121.156 44.7289 121.422 45.0089 121.772C45.2749 122.122 45.4149 122.598 45.4149 123.2C45.4149 123.606 45.3309 123.984 45.1629 124.334C44.9809 124.698 44.7289 125.006 44.4069 125.272C44.0849 125.538 43.6789 125.748 43.2029 125.902C42.7269 126.056 42.1809 126.14 41.5649 126.14ZM51.0882 126.14C50.4022 126.14 49.7722 126.028 49.2262 125.804C48.6662 125.58 48.1902 125.258 47.7842 124.824C47.3782 124.39 47.0702 123.872 46.8602 123.242C46.6502 122.612 46.5382 121.898 46.5382 121.1C46.5382 120.302 46.6502 119.588 46.8602 118.958C47.0702 118.328 47.3782 117.81 47.7842 117.376C48.1902 116.942 48.6662 116.62 49.2262 116.396C49.7722 116.172 50.4022 116.06 51.0882 116.06C51.7742 116.06 52.3902 116.172 52.9502 116.396C53.5102 116.62 53.9862 116.942 54.3922 117.376C54.7982 117.81 55.1062 118.328 55.3162 118.958C55.5262 119.588 55.6382 120.302 55.6382 121.1C55.6382 121.898 55.5262 122.612 55.3162 123.242C55.1062 123.872 54.7982 124.39 54.3922 124.824C53.9862 125.258 53.5102 125.58 52.9502 125.804C52.3902 126.028 51.7742 126.14 51.0882 126.14ZM51.0882 124.6C51.9282 124.6 52.6002 124.306 53.1182 123.718C53.6362 123.13 53.8882 122.262 53.8882 121.1C53.8882 119.938 53.6362 119.07 53.1182 118.482C52.6002 117.894 51.9282 117.6 51.0882 117.6C50.2482 117.6 49.5762 117.894 49.0582 118.482C48.5402 119.07 48.2882 119.938 48.2882 121.1C48.2882 122.262 48.5402 123.13 49.0582 123.718C49.5762 124.306 50.2482 124.6 51.0882 124.6ZM64.3877 122.43H64.3177C64.1777 122.5 64.0237 122.556 63.8697 122.584C63.7157 122.626 63.5057 122.64 63.2677 122.64C62.7637 122.64 62.3017 122.556 61.8957 122.388C61.4757 122.234 61.1257 122.01 60.8317 121.716C60.5377 121.422 60.2997 121.086 60.1457 120.694C59.9917 120.302 59.9077 119.882 59.9077 119.42C59.9077 118.93 59.9917 118.482 60.1597 118.062C60.3277 117.656 60.5657 117.292 60.8877 116.998C61.2097 116.704 61.5877 116.48 62.0357 116.312C62.4837 116.144 62.9877 116.06 63.5477 116.06C64.1077 116.06 64.6117 116.144 65.0597 116.312C65.5077 116.48 65.8857 116.718 66.2077 117.012C66.5297 117.306 66.7677 117.67 66.9357 118.09C67.1037 118.524 67.1877 118.986 67.1877 119.49C67.1877 120.022 67.1037 120.526 66.9357 121.016C66.7677 121.506 66.5297 122.01 66.2077 122.5L63.9677 126H62.0077L64.3877 122.43ZM63.5477 121.24C64.1077 121.24 64.5697 121.072 64.9197 120.75C65.2697 120.428 65.4377 119.98 65.4377 119.42C65.4377 118.86 65.2697 118.412 64.9197 118.09C64.5697 117.768 64.1077 117.6 63.5477 117.6C62.9877 117.6 62.5397 117.768 62.1897 118.09C61.8397 118.412 61.6577 118.86 61.6577 119.42C61.6577 119.98 61.8397 120.428 62.1897 120.75C62.5397 121.072 62.9877 121.24 63.5477 121.24ZM72.4322 126.14C71.8302 126.14 71.2842 126.028 70.7802 125.818C70.2762 125.608 69.8422 125.3 69.4782 124.88C69.1002 124.46 68.8202 123.928 68.6102 123.298C68.4002 122.668 68.3022 121.94 68.3022 121.1C68.3022 120.26 68.4002 119.518 68.6102 118.888C68.8202 118.258 69.1002 117.74 69.4782 117.32C69.8422 116.9 70.2762 116.578 70.7802 116.368C71.2842 116.158 71.8302 116.06 72.4322 116.06C73.0342 116.06 73.5802 116.158 74.0842 116.368C74.5882 116.578 75.0222 116.9 75.4002 117.32C75.7642 117.74 76.0442 118.258 76.2542 118.888C76.4642 119.518 76.5622 120.26 76.5622 121.1C76.5622 121.94 76.4642 122.668 76.2542 123.298C76.0442 123.928 75.7642 124.46 75.4002 124.88C75.0222 125.3 74.5882 125.608 74.0842 125.818C73.5802 126.028 73.0342 126.14 72.4322 126.14ZM72.4322 124.53C72.7542 124.53 73.0482 124.46 73.3422 124.32C73.6222 124.194 73.8742 123.984 74.0982 123.704C74.3082 123.424 74.4902 123.074 74.6162 122.64C74.7422 122.206 74.8122 121.702 74.8122 121.1C74.8122 120.498 74.7422 119.994 74.6162 119.56C74.4902 119.126 74.3082 118.776 74.0982 118.496C73.8742 118.216 73.6222 118.006 73.3422 117.866C73.0482 117.74 72.7542 117.67 72.4322 117.67C72.1102 117.67 71.8162 117.74 71.5362 117.866C71.2422 118.006 70.9902 118.216 70.7802 118.496C70.5562 118.776 70.3742 119.126 70.2482 119.56C70.1222 119.994 70.0522 120.498 70.0522 121.1C70.0522 121.702 70.1222 122.206 70.2482 122.64C70.3742 123.074 70.5562 123.424 70.7802 123.704C70.9902 123.984 71.2422 124.194 71.5362 124.32C71.8162 124.46 72.1102 124.53 72.4322 124.53ZM81.8111 126.14C81.2091 126.14 80.6631 126.028 80.1591 125.818C79.6551 125.608 79.2211 125.3 78.8571 124.88C78.4791 124.46 78.1991 123.928 77.9891 123.298C77.7791 122.668 77.6811 121.94 77.6811 121.1C77.6811 120.26 77.7791 119.518 77.9891 118.888C78.1991 118.258 78.4791 117.74 78.8571 117.32C79.2211 116.9 79.6551 116.578 80.1591 116.368C80.6631 116.158 81.2091 116.06 81.8111 116.06C82.4131 116.06 82.9591 116.158 83.4631 116.368C83.9671 116.578 84.4011 116.9 84.7791 117.32C85.1431 117.74 85.4231 118.258 85.6331 118.888C85.8431 119.518 85.9411 120.26 85.9411 121.1C85.9411 121.94 85.8431 122.668 85.6331 123.298C85.4231 123.928 85.1431 124.46 84.7791 124.88C84.4011 125.3 83.9671 125.608 83.4631 125.818C82.9591 126.028 82.4131 126.14 81.8111 126.14ZM81.8111 124.53C82.1331 124.53 82.4271 124.46 82.7211 124.32C83.0011 124.194 83.2531 123.984 83.4771 123.704C83.6871 123.424 83.8691 123.074 83.9951 122.64C84.1211 122.206 84.1911 121.702 84.1911 121.1C84.1911 120.498 84.1211 119.994 83.9951 119.56C83.8691 119.126 83.6871 118.776 83.4771 118.496C83.2531 118.216 83.0011 118.006 82.7211 117.866C82.4271 117.74 82.1331 117.67 81.8111 117.67C81.4891 117.67 81.1951 117.74 80.9151 117.866C80.6211 118.006 80.3691 118.216 80.1591 118.496C79.9351 118.776 79.7531 119.126 79.6271 119.56C79.5011 119.994 79.4311 120.498 79.4311 121.1C79.4311 121.702 79.5011 122.206 79.6271 122.64C79.7531 123.074 79.9351 123.424 80.1591 123.704C80.3691 123.984 80.6211 124.194 80.9151 124.32C81.1951 124.46 81.4891 124.53 81.8111 124.53ZM88.88 118.93H86.92V117.39H88.32C88.698 117.39 88.88 117.194 88.88 116.816V116.2H90.63V126H88.88V118.93ZM93.2216 126.07C92.9416 126.07 92.7036 125.972 92.5216 125.79C92.3396 125.608 92.2416 125.37 92.2416 125.09C92.2416 124.81 92.3396 124.572 92.5216 124.39C92.7036 124.208 92.9416 124.11 93.2216 124.11C93.5016 124.11 93.7396 124.208 93.9216 124.39C94.1036 124.572 94.2016 124.81 94.2016 125.09C94.2016 125.37 94.1036 125.608 93.9216 125.79C93.7396 125.972 93.5016 126.07 93.2216 126.07ZM93.2216 120.47C92.9416 120.47 92.7036 120.372 92.5216 120.19C92.3396 120.008 92.2416 119.77 92.2416 119.49C92.2416 119.21 92.3396 118.972 92.5216 118.79C92.7036 118.608 92.9416 118.51 93.2216 118.51C93.5016 118.51 93.7396 118.608 93.9216 118.79C94.1036 118.972 94.2016 119.21 94.2016 119.49C94.2016 119.77 94.1036 120.008 93.9216 120.19C93.7396 120.372 93.5016 120.47 93.2216 120.47ZM95.3178 124.46L99.6578 120.4C99.8818 120.19 100.05 119.966 100.176 119.742C100.302 119.532 100.358 119.28 100.358 119C100.358 118.58 100.232 118.244 99.9798 117.978C99.7138 117.726 99.3078 117.6 98.7478 117.6C98.2858 117.6 97.9218 117.726 97.6278 117.978C97.3338 118.244 97.1378 118.58 97.0678 119H95.3178C95.3738 118.58 95.4858 118.188 95.6538 117.824C95.8078 117.474 96.0318 117.166 96.3258 116.9C96.6058 116.634 96.9558 116.438 97.3618 116.284C97.7678 116.13 98.2298 116.06 98.7478 116.06C99.3078 116.06 99.7978 116.13 100.232 116.27C100.666 116.41 101.016 116.606 101.31 116.858C101.59 117.124 101.8 117.418 101.954 117.768C102.108 118.118 102.178 118.51 102.178 118.93C102.178 119.196 102.15 119.434 102.08 119.658C102.01 119.896 101.912 120.106 101.8 120.316C101.674 120.526 101.548 120.708 101.394 120.89C101.24 121.072 101.072 121.226 100.918 121.38L97.6978 124.46H102.318V126H95.3178V124.46ZM107.364 126.14C106.762 126.14 106.216 126.028 105.712 125.818C105.208 125.608 104.774 125.3 104.41 124.88C104.032 124.46 103.752 123.928 103.542 123.298C103.332 122.668 103.234 121.94 103.234 121.1C103.234 120.26 103.332 119.518 103.542 118.888C103.752 118.258 104.032 117.74 104.41 117.32C104.774 116.9 105.208 116.578 105.712 116.368C106.216 116.158 106.762 116.06 107.364 116.06C107.966 116.06 108.512 116.158 109.016 116.368C109.52 116.578 109.954 116.9 110.332 117.32C110.696 117.74 110.976 118.258 111.186 118.888C111.396 119.518 111.494 120.26 111.494 121.1C111.494 121.94 111.396 122.668 111.186 123.298C110.976 123.928 110.696 124.46 110.332 124.88C109.954 125.3 109.52 125.608 109.016 125.818C108.512 126.028 107.966 126.14 107.364 126.14ZM107.364 124.53C107.686 124.53 107.98 124.46 108.274 124.32C108.554 124.194 108.806 123.984 109.03 123.704C109.24 123.424 109.422 123.074 109.548 122.64C109.674 122.206 109.744 121.702 109.744 121.1C109.744 120.498 109.674 119.994 109.548 119.56C109.422 119.126 109.24 118.776 109.03 118.496C108.806 118.216 108.554 118.006 108.274 117.866C107.98 117.74 107.686 117.67 107.364 117.67C107.042 117.67 106.748 117.74 106.468 117.866C106.174 118.006 105.922 118.216 105.712 118.496C105.488 118.776 105.306 119.126 105.18 119.56C105.054 119.994 104.984 120.498 104.984 121.1C104.984 121.702 105.054 122.206 105.18 122.64C105.306 123.074 105.488 123.424 105.712 123.704C105.922 123.984 106.174 124.194 106.468 124.32C106.748 124.46 107.042 124.53 107.364 124.53ZM114.433 118.93H112.473V117.39H113.873C114.251 117.39 114.433 117.194 114.433 116.816V116.2H116.183V126H114.433V118.93ZM121.364 126.14C120.944 126.14 120.538 126.07 120.146 125.944C119.754 125.818 119.404 125.622 119.082 125.37C118.76 125.132 118.494 124.824 118.27 124.46C118.032 124.096 117.878 123.676 117.794 123.2H119.544C119.642 123.62 119.866 123.956 120.188 124.208C120.51 124.474 120.902 124.6 121.364 124.6C121.994 124.6 122.47 124.418 122.792 124.068C123.1 123.718 123.254 123.27 123.254 122.71C123.254 122.444 123.212 122.206 123.142 121.968C123.058 121.744 122.932 121.548 122.778 121.366C122.624 121.198 122.428 121.058 122.19 120.96C121.952 120.862 121.686 120.82 121.364 120.82C120.972 120.82 120.636 120.904 120.37 121.086C120.09 121.268 119.866 121.492 119.684 121.73H118.004L118.564 116.2H124.444V117.74H120.034L119.824 119.98H119.894C120.104 119.798 120.37 119.658 120.678 119.56C120.972 119.462 121.322 119.42 121.714 119.42C122.19 119.42 122.624 119.504 123.03 119.658C123.436 119.826 123.786 120.064 124.08 120.358C124.374 120.652 124.598 121.016 124.766 121.422C124.92 121.828 125.004 122.29 125.004 122.78C125.004 123.256 124.92 123.704 124.766 124.11C124.598 124.516 124.36 124.88 124.052 125.174C123.744 125.482 123.366 125.72 122.918 125.888C122.456 126.056 121.938 126.14 121.364 126.14Z" fill="white"/>
<path opacity="0.5" d="M6.70366 16.014C6.33966 16.098 5.94766 16.14 5.52766 16.14C4.84166 16.14 4.21166 16.028 3.66566 15.804C3.10566 15.58 2.62966 15.258 2.22366 14.824C1.81766 14.39 1.50966 13.872 1.29966 13.242C1.08966 12.612 0.977656 11.898 0.977656 11.1C0.977656 10.302 1.08966 9.588 1.29966 8.958C1.50966 8.328 1.81766 7.81 2.22366 7.376C2.62966 6.942 3.10566 6.62 3.66566 6.396C4.21166 6.172 4.84166 6.06 5.52766 6.06C6.21366 6.06 6.82966 6.172 7.38966 6.396C7.94966 6.62 8.42566 6.942 8.83166 7.376C9.23766 7.81 9.54566 8.328 9.75566 8.958C9.96566 9.588 10.0777 10.302 10.0777 11.1C10.0777 12.122 9.90966 12.976 9.58766 13.69C9.25166 14.404 8.77566 14.978 8.17366 15.384L9.51766 17.4H7.62766L6.70366 16.014ZM5.76566 14.6L4.61766 12.85H6.50766L7.26366 14.012C7.59966 13.718 7.86566 13.34 8.04766 12.85C8.22966 12.374 8.32766 11.786 8.32766 11.1C8.32766 9.938 8.07566 9.07 7.55766 8.482C7.03966 7.894 6.36766 7.6 5.52766 7.6C4.68766 7.6 4.01566 7.894 3.49766 8.482C2.97966 9.07 2.72766 9.938 2.72766 11.1C2.72766 12.262 2.97966 13.13 3.49766 13.718C4.01566 14.306 4.68766 14.6 5.52766 14.6H5.76566ZM14.3509 16.14C13.9449 16.14 13.5809 16.07 13.2449 15.916C12.9089 15.776 12.6289 15.58 12.3909 15.314C12.1529 15.048 11.9569 14.74 11.8309 14.362C11.6909 13.998 11.6209 13.592 11.6209 13.13V8.58H13.2309V12.99C13.2309 13.522 13.3709 13.928 13.6649 14.222C13.9449 14.516 14.3089 14.67 14.7709 14.67C15.0089 14.67 15.2329 14.628 15.4429 14.53C15.6389 14.446 15.8069 14.32 15.9469 14.166C16.0869 14.012 16.1989 13.83 16.2689 13.62C16.3389 13.41 16.3809 13.2 16.3809 12.962V8.58H17.9909V16H16.6609L16.4509 15.09H16.3809C16.1709 15.44 15.8769 15.706 15.5269 15.874C15.1629 16.056 14.7709 16.14 14.3509 16.14ZM22.2604 14.74C22.8204 14.74 23.2684 14.6 23.5904 14.306C23.9124 14.012 24.0804 13.62 24.0804 13.13V12.78H22.2604C21.7984 12.78 21.4764 12.878 21.2944 13.06C21.0984 13.242 21.0004 13.48 21.0004 13.76C21.0004 14.04 21.1124 14.278 21.3224 14.46C21.5324 14.642 21.8404 14.74 22.2604 14.74ZM21.9104 16.14C21.5324 16.14 21.1824 16.084 20.8744 15.958C20.5524 15.846 20.2864 15.692 20.0764 15.482C19.8524 15.272 19.6844 15.034 19.5724 14.754C19.4464 14.474 19.3904 14.166 19.3904 13.83C19.3904 13.508 19.4464 13.214 19.5724 12.934C19.6984 12.654 19.8804 12.402 20.1184 12.192C20.3564 11.982 20.6364 11.828 20.9864 11.702C21.3364 11.576 21.7284 11.52 22.1904 11.52H24.0804V11.17C24.0804 10.75 23.9544 10.428 23.6884 10.19C23.4224 9.952 23.0724 9.84 22.6104 9.84C22.2184 9.84 21.9244 9.924 21.7144 10.092C21.5044 10.274 21.3504 10.47 21.2804 10.68H19.6284C19.7124 10.358 19.8384 10.064 20.0064 9.798C20.1744 9.532 20.3844 9.294 20.6364 9.084C20.8884 8.888 21.1824 8.734 21.5184 8.608C21.8404 8.496 22.2044 8.44 22.6104 8.44C23.6044 8.44 24.3604 8.678 24.8924 9.168C25.4244 9.658 25.6904 10.316 25.6904 11.17V16H24.2904L24.1504 15.09H24.0804C24.0104 15.216 23.9124 15.328 23.7864 15.454C23.6604 15.58 23.4924 15.692 23.3104 15.79C23.1284 15.888 22.9184 15.972 22.6804 16.042C22.4424 16.112 22.1904 16.14 21.9104 16.14ZM27.5093 6.2H29.1193V16H27.5093V6.2ZM31.0077 8.58H32.6177V16H31.0077V8.58ZM31.8057 7.74C31.5117 7.74 31.2597 7.642 31.0777 7.46C30.8957 7.278 30.7977 7.04 30.7977 6.76C30.7977 6.48 30.8957 6.242 31.0777 6.06C31.2597 5.878 31.5117 5.78 31.8057 5.78C32.0997 5.78 32.3517 5.878 32.5477 6.06C32.7297 6.242 32.8277 6.48 32.8277 6.76C32.8277 7.04 32.7297 7.278 32.5477 7.46C32.3517 7.642 32.0997 7.74 31.8057 7.74ZM37.0993 16C36.4273 16 35.9093 15.818 35.5453 15.454C35.1813 15.104 34.9993 14.6 34.9993 13.97V10.05H33.8093V8.58H34.9993L35.2093 6.62H36.6093V8.58H38.4293V10.05H36.6093V13.76C36.6093 13.97 36.6793 14.152 36.8193 14.306C36.9453 14.46 37.1413 14.53 37.3793 14.53H38.4293V16H37.0993ZM41.8577 16L38.8477 8.58H40.5977L42.6277 13.83H42.6977L44.7277 8.58H46.4777L42.4177 18.8H40.7377L41.8577 16ZM50.1789 6.2H51.9289V16H50.1789V6.2ZM53.8944 8.58H55.2244L55.4344 9.49H55.5044C55.7144 9.14 56.0084 8.874 56.3724 8.692C56.7224 8.524 57.1144 8.44 57.5344 8.44C57.9404 8.44 58.3044 8.51 58.6404 8.65C58.9764 8.804 59.2704 9 59.5084 9.266C59.7464 9.532 59.9284 9.84 60.0684 10.204C60.1944 10.582 60.2644 10.988 60.2644 11.45V16H58.6544V11.59C58.6544 11.058 58.5144 10.638 58.2344 10.344C57.9404 10.05 57.5764 9.91 57.1144 9.91C56.8764 9.91 56.6524 9.952 56.4564 10.036C56.2464 10.134 56.0784 10.246 55.9384 10.4C55.7984 10.554 55.6864 10.736 55.6164 10.946C55.5464 11.156 55.5044 11.38 55.5044 11.618V16H53.8944V8.58ZM67.2578 6.2H69.4278L72.9978 16H71.1778L70.4218 13.9H66.2638L65.5078 16H63.6878L67.2578 6.2ZM69.8758 12.36L68.3778 8.16H68.3078L66.8098 12.36H69.8758ZM76.7182 16.14C76.2002 16.14 75.7242 16.056 75.2902 15.874C74.8562 15.706 74.4922 15.454 74.1842 15.132C73.8762 14.81 73.6382 14.404 73.4702 13.928C73.3022 13.452 73.2182 12.906 73.2182 12.29C73.2182 11.674 73.3022 11.128 73.4702 10.652C73.6382 10.176 73.8762 9.77 74.1842 9.448C74.4922 9.126 74.8562 8.874 75.2902 8.692C75.7242 8.524 76.2002 8.44 76.7182 8.44C77.1802 8.44 77.5862 8.51 77.9502 8.636C78.3142 8.762 78.6362 8.944 78.9162 9.168C79.1822 9.392 79.4202 9.644 79.6022 9.938C79.7842 10.232 79.9242 10.554 80.0082 10.89H78.3982C78.2162 10.568 78.0062 10.33 77.7402 10.162C77.4742 9.994 77.1382 9.91 76.7182 9.91C76.1582 9.91 75.7102 10.106 75.3602 10.512C75.0102 10.918 74.8282 11.52 74.8282 12.29C74.8282 13.06 75.0102 13.648 75.3602 14.054C75.7102 14.46 76.1582 14.67 76.7182 14.67C77.1382 14.67 77.4742 14.586 77.7402 14.418C78.0062 14.25 78.2162 14.012 78.3982 13.69H80.0082C79.9242 14.026 79.7842 14.334 79.6022 14.628C79.4202 14.922 79.1822 15.188 78.9162 15.412C78.6362 15.636 78.3142 15.818 77.9502 15.944C77.5862 16.07 77.1802 16.14 76.7182 16.14ZM84.4838 16.14C83.9658 16.14 83.4898 16.056 83.0558 15.874C82.6218 15.706 82.2578 15.454 81.9498 15.132C81.6418 14.81 81.4038 14.404 81.2358 13.928C81.0678 13.452 80.9838 12.906 80.9838 12.29C80.9838 11.674 81.0678 11.128 81.2358 10.652C81.4038 10.176 81.6418 9.77 81.9498 9.448C82.2578 9.126 82.6218 8.874 83.0558 8.692C83.4898 8.524 83.9658 8.44 84.4838 8.44C84.9458 8.44 85.3518 8.51 85.7158 8.636C86.0798 8.762 86.4018 8.944 86.6818 9.168C86.9478 9.392 87.1858 9.644 87.3678 9.938C87.5498 10.232 87.6898 10.554 87.7738 10.89H86.1638C85.9818 10.568 85.7718 10.33 85.5058 10.162C85.2398 9.994 84.9038 9.91 84.4838 9.91C83.9238 9.91 83.4758 10.106 83.1258 10.512C82.7758 10.918 82.5938 11.52 82.5938 12.29C82.5938 13.06 82.7758 13.648 83.1258 14.054C83.4758 14.46 83.9238 14.67 84.4838 14.67C84.9038 14.67 85.2398 14.586 85.5058 14.418C85.7718 14.25 85.9818 14.012 86.1638 13.69H87.7738C87.6898 14.026 87.5498 14.334 87.3678 14.628C87.1858 14.922 86.9478 15.188 86.6818 15.412C86.4018 15.636 86.0798 15.818 85.7158 15.944C85.3518 16.07 84.9458 16.14 84.4838 16.14ZM92.2495 16.14C91.7315 16.14 91.2555 16.056 90.8215 15.874C90.3875 15.706 90.0235 15.454 89.7155 15.132C89.4075 14.81 89.1695 14.404 89.0015 13.928C88.8335 13.452 88.7495 12.906 88.7495 12.29C88.7495 11.674 88.8335 11.128 89.0015 10.652C89.1695 10.176 89.4075 9.77 89.7155 9.448C90.0235 9.126 90.3875 8.874 90.8215 8.692C91.2555 8.524 91.7315 8.44 92.2495 8.44C92.7675 8.44 93.2435 8.524 93.6775 8.692C94.1115 8.874 94.4755 9.126 94.7835 9.448C95.0915 9.77 95.3295 10.176 95.4975 10.652C95.6655 11.128 95.7495 11.674 95.7495 12.29C95.7495 12.906 95.6655 13.452 95.4975 13.928C95.3295 14.404 95.0915 14.81 94.7835 15.132C94.4755 15.454 94.1115 15.706 93.6775 15.874C93.2435 16.056 92.7675 16.14 92.2495 16.14ZM92.2495 14.67C92.5155 14.67 92.7535 14.614 92.9915 14.516C93.2155 14.418 93.4115 14.278 93.5935 14.082C93.7615 13.886 93.9015 13.634 93.9995 13.34C94.0975 13.046 94.1395 12.696 94.1395 12.29C94.1395 11.884 94.0975 11.534 93.9995 11.24C93.9015 10.946 93.7615 10.694 93.5935 10.498C93.4115 10.302 93.2155 10.148 92.9915 10.05C92.7535 9.952 92.5155 9.91 92.2495 9.91C91.9835 9.91 91.7455 9.952 91.5215 10.05C91.2835 10.148 91.0875 10.302 90.9195 10.498C90.7375 10.694 90.6115 10.946 90.5135 11.24C90.4155 11.534 90.3595 11.884 90.3595 12.29C90.3595 12.696 90.4155 13.046 90.5135 13.34C90.6115 13.634 90.7375 13.886 90.9195 14.082C91.0875 14.278 91.2835 14.418 91.5215 14.516C91.7455 14.614 91.9835 14.67 92.2495 14.67ZM97.2205 8.58H98.5505L98.7605 9.49H98.8305C99.0405 9.168 99.3065 8.944 99.6145 8.79C99.9085 8.65 100.259 8.58 100.651 8.58H101.561V10.12H100.791C100.189 10.12 99.7125 10.288 99.3625 10.61C99.0125 10.932 98.8305 11.38 98.8305 11.94V16H97.2205V8.58ZM105.552 14.67C105.818 14.67 106.056 14.614 106.294 14.516C106.518 14.418 106.714 14.278 106.896 14.082C107.064 13.886 107.204 13.634 107.302 13.34C107.4 13.046 107.442 12.696 107.442 12.29C107.442 11.884 107.4 11.534 107.302 11.24C107.204 10.946 107.064 10.694 106.896 10.498C106.714 10.302 106.518 10.148 106.294 10.05C106.056 9.952 105.818 9.91 105.552 9.91C105.286 9.91 105.048 9.952 104.824 10.05C104.586 10.148 104.39 10.302 104.222 10.498C104.04 10.694 103.914 10.946 103.816 11.24C103.718 11.534 103.662 11.884 103.662 12.29C103.662 12.696 103.718 13.046 103.816 13.34C103.914 13.634 104.04 13.886 104.222 14.082C104.39 14.278 104.586 14.418 104.824 14.516C105.048 14.614 105.286 14.67 105.552 14.67ZM105.272 16.14C104.796 16.14 104.362 16.056 103.97 15.888C103.578 15.72 103.242 15.468 102.962 15.146C102.668 14.824 102.444 14.432 102.29 13.942C102.136 13.466 102.052 12.92 102.052 12.29C102.052 11.66 102.136 11.114 102.29 10.624C102.444 10.148 102.668 9.742 102.962 9.42C103.242 9.098 103.578 8.86 103.97 8.692C104.362 8.524 104.796 8.44 105.272 8.44C105.538 8.44 105.776 8.468 106 8.524C106.224 8.594 106.434 8.664 106.616 8.762C106.798 8.86 106.952 8.972 107.078 9.084C107.204 9.21 107.302 9.322 107.372 9.42H107.442V6.2H109.052V16H107.722L107.512 15.09H107.442C107.232 15.37 106.938 15.608 106.574 15.818C106.196 16.028 105.762 16.14 105.272 16.14ZM113.397 14.74C113.957 14.74 114.405 14.6 114.727 14.306C115.049 14.012 115.217 13.62 115.217 13.13V12.78H113.397C112.935 12.78 112.613 12.878 112.431 13.06C112.235 13.242 112.137 13.48 112.137 13.76C112.137 14.04 112.249 14.278 112.459 14.46C112.669 14.642 112.977 14.74 113.397 14.74ZM113.047 16.14C112.669 16.14 112.319 16.084 112.011 15.958C111.689 15.846 111.423 15.692 111.213 15.482C110.989 15.272 110.821 15.034 110.709 14.754C110.583 14.474 110.527 14.166 110.527 13.83C110.527 13.508 110.583 13.214 110.709 12.934C110.835 12.654 111.017 12.402 111.255 12.192C111.493 11.982 111.773 11.828 112.123 11.702C112.473 11.576 112.865 11.52 113.327 11.52H115.217V11.17C115.217 10.75 115.091 10.428 114.825 10.19C114.559 9.952 114.209 9.84 113.747 9.84C113.355 9.84 113.061 9.924 112.851 10.092C112.641 10.274 112.487 10.47 112.417 10.68H110.765C110.849 10.358 110.975 10.064 111.143 9.798C111.311 9.532 111.521 9.294 111.773 9.084C112.025 8.888 112.319 8.734 112.655 8.608C112.977 8.496 113.341 8.44 113.747 8.44C114.741 8.44 115.497 8.678 116.029 9.168C116.561 9.658 116.827 10.316 116.827 11.17V16H115.427L115.287 15.09H115.217C115.147 15.216 115.049 15.328 114.923 15.454C114.797 15.58 114.629 15.692 114.447 15.79C114.265 15.888 114.055 15.972 113.817 16.042C113.579 16.112 113.327 16.14 113.047 16.14ZM118.576 8.58H119.906L120.116 9.49H120.186C120.396 9.14 120.69 8.874 121.054 8.692C121.404 8.524 121.796 8.44 122.216 8.44C122.622 8.44 122.986 8.51 123.322 8.65C123.658 8.804 123.952 9 124.19 9.266C124.428 9.532 124.61 9.84 124.75 10.204C124.876 10.582 124.946 10.988 124.946 11.45V16H123.336V11.59C123.336 11.058 123.196 10.638 122.916 10.344C122.622 10.05 122.258 9.91 121.796 9.91C121.558 9.91 121.334 9.952 121.138 10.036C120.928 10.134 120.76 10.246 120.62 10.4C120.48 10.554 120.368 10.736 120.298 10.946C120.228 11.156 120.186 11.38 120.186 11.618V16H118.576V8.58ZM129.847 16.14C129.329 16.14 128.853 16.056 128.419 15.874C127.985 15.706 127.621 15.454 127.313 15.132C127.005 14.81 126.767 14.404 126.599 13.928C126.431 13.452 126.347 12.906 126.347 12.29C126.347 11.674 126.431 11.128 126.599 10.652C126.767 10.176 127.005 9.77 127.313 9.448C127.621 9.126 127.985 8.874 128.419 8.692C128.853 8.524 129.329 8.44 129.847 8.44C130.309 8.44 130.715 8.51 131.079 8.636C131.443 8.762 131.765 8.944 132.045 9.168C132.311 9.392 132.549 9.644 132.731 9.938C132.913 10.232 133.053 10.554 133.137 10.89H131.527C131.345 10.568 131.135 10.33 130.869 10.162C130.603 9.994 130.267 9.91 129.847 9.91C129.287 9.91 128.839 10.106 128.489 10.512C128.139 10.918 127.957 11.52 127.957 12.29C127.957 13.06 128.139 13.648 128.489 14.054C128.839 14.46 129.287 14.67 129.847 14.67C130.267 14.67 130.603 14.586 130.869 14.418C131.135 14.25 131.345 14.012 131.527 13.69H133.137C133.053 14.026 132.913 14.334 132.731 14.628C132.549 14.922 132.311 15.188 132.045 15.412C131.765 15.636 131.443 15.818 131.079 15.944C130.715 16.07 130.309 16.14 129.847 16.14ZM137.669 16.14C137.123 16.14 136.633 16.056 136.199 15.874C135.765 15.706 135.387 15.454 135.079 15.132C134.771 14.81 134.533 14.404 134.365 13.928C134.197 13.452 134.113 12.906 134.113 12.29C134.113 11.674 134.197 11.128 134.365 10.652C134.533 10.176 134.771 9.77 135.079 9.448C135.387 9.126 135.751 8.874 136.185 8.692C136.619 8.524 137.095 8.44 137.613 8.44C138.173 8.44 138.677 8.538 139.111 8.734C139.545 8.93 139.909 9.196 140.203 9.518C140.497 9.854 140.735 10.246 140.889 10.68C141.043 11.128 141.113 11.59 141.113 12.08C141.113 12.178 141.113 12.276 141.099 12.36C141.085 12.444 141.085 12.514 141.071 12.584C141.057 12.654 141.057 12.724 141.043 12.78H135.793C135.835 13.34 136.017 13.788 136.353 14.138C136.675 14.488 137.123 14.67 137.683 14.67C138.075 14.67 138.383 14.586 138.621 14.432C138.845 14.278 139.041 14.068 139.223 13.83H140.973C140.875 14.152 140.721 14.446 140.539 14.726C140.357 15.006 140.119 15.244 139.853 15.454C139.587 15.664 139.265 15.832 138.901 15.958C138.537 16.084 138.131 16.14 137.669 16.14ZM139.433 11.52C139.363 11.058 139.167 10.68 138.873 10.372C138.565 10.064 138.145 9.91 137.613 9.91C137.123 9.91 136.717 10.05 136.409 10.344C136.101 10.638 135.891 11.03 135.793 11.52H139.433ZM147.616 7.74H144.606V6.2H152.376V7.74H149.366V16H147.616V7.74ZM155.591 16.14C155.073 16.14 154.597 16.056 154.163 15.874C153.729 15.706 153.365 15.454 153.057 15.132C152.749 14.81 152.511 14.404 152.343 13.928C152.175 13.452 152.091 12.906 152.091 12.29C152.091 11.674 152.175 11.128 152.343 10.652C152.511 10.176 152.749 9.77 153.057 9.448C153.365 9.126 153.729 8.874 154.163 8.692C154.597 8.524 155.073 8.44 155.591 8.44C156.109 8.44 156.585 8.524 157.019 8.692C157.453 8.874 157.817 9.126 158.125 9.448C158.433 9.77 158.671 10.176 158.839 10.652C159.007 11.128 159.091 11.674 159.091 12.29C159.091 12.906 159.007 13.452 158.839 13.928C158.671 14.404 158.433 14.81 158.125 15.132C157.817 15.454 157.453 15.706 157.019 15.874C156.585 16.056 156.109 16.14 155.591 16.14ZM155.591 14.67C155.857 14.67 156.095 14.614 156.333 14.516C156.557 14.418 156.753 14.278 156.935 14.082C157.103 13.886 157.243 13.634 157.341 13.34C157.439 13.046 157.481 12.696 157.481 12.29C157.481 11.884 157.439 11.534 157.341 11.24C157.243 10.946 157.103 10.694 156.935 10.498C156.753 10.302 156.557 10.148 156.333 10.05C156.095 9.952 155.857 9.91 155.591 9.91C155.325 9.91 155.087 9.952 154.863 10.05C154.625 10.148 154.429 10.302 154.261 10.498C154.079 10.694 153.953 10.946 153.855 11.24C153.757 11.534 153.701 11.884 153.701 12.29C153.701 12.696 153.757 13.046 153.855 13.34C153.953 13.634 154.079 13.886 154.261 14.082C154.429 14.278 154.625 14.418 154.863 14.516C155.087 14.614 155.325 14.67 155.591 14.67Z" fill="white"/>
</svg>
