<svg width="82" height="130" viewBox="0 0 82 130" fill="none" xmlns="http://www.w3.org/2000/svg">
<path opacity="0.5" d="M9.33102 7.74H6.32102V6.2H14.091V7.74H11.081V16H9.33102V7.74ZM14.2928 8.58H15.6228L15.8328 9.49H15.9028C16.1128 9.168 16.3788 8.944 16.6868 8.79C16.9808 8.65 17.3308 8.58 17.7228 8.58H18.6328V10.12H17.8628C17.2608 10.12 16.7848 10.288 16.4348 10.61C16.0848 10.932 15.9028 11.38 15.9028 11.94V16H14.2928V8.58ZM22.4779 16.14C22.0719 16.14 21.7079 16.07 21.3719 15.916C21.0359 15.776 20.7559 15.58 20.5179 15.314C20.2799 15.048 20.0839 14.74 19.9579 14.362C19.8179 13.998 19.7479 13.592 19.7479 13.13V8.58H21.3579V12.99C21.3579 13.522 21.4979 13.928 21.7919 14.222C22.0719 14.516 22.4359 14.67 22.8979 14.67C23.1359 14.67 23.3599 14.628 23.5699 14.53C23.7659 14.446 23.9339 14.32 24.0739 14.166C24.2139 14.012 24.3259 13.83 24.3959 13.62C24.4659 13.41 24.5079 13.2 24.5079 12.962V8.58H26.1179V16H24.7879L24.5779 15.09H24.5079C24.2979 15.44 24.0039 15.706 23.6539 15.874C23.2899 16.056 22.8979 16.14 22.4779 16.14ZM30.5273 16.14C30.0653 16.14 29.6593 16.084 29.3093 15.958C28.9453 15.846 28.6373 15.692 28.3713 15.482C28.1053 15.272 27.8953 15.034 27.7273 14.754C27.5593 14.474 27.4473 14.166 27.3773 13.83H29.1273C29.1973 14.068 29.3513 14.278 29.5893 14.432C29.8273 14.586 30.1353 14.67 30.5273 14.67C31.0453 14.67 31.4093 14.6 31.6193 14.446C31.8293 14.292 31.9273 14.11 31.9273 13.9C31.9273 13.662 31.8293 13.494 31.6193 13.382C31.4093 13.27 31.1433 13.172 30.8213 13.102C30.4993 13.032 30.1633 12.962 29.7993 12.878C29.4213 12.808 29.0853 12.682 28.7633 12.514C28.4413 12.36 28.1893 12.122 27.9793 11.828C27.7693 11.534 27.6573 11.128 27.6573 10.61C27.6573 10.316 27.7133 10.036 27.8393 9.77C27.9653 9.504 28.1473 9.28 28.3853 9.084C28.6233 8.888 28.9033 8.734 29.2533 8.608C29.6033 8.496 29.9953 8.44 30.4573 8.44C30.9193 8.44 31.3253 8.496 31.6753 8.594C32.0253 8.706 32.3193 8.86 32.5713 9.042C32.8233 9.238 33.0333 9.462 33.1873 9.728C33.3413 9.994 33.4673 10.288 33.5373 10.61H31.7873C31.7173 10.428 31.5773 10.274 31.3813 10.12C31.1853 9.98 30.8773 9.91 30.4573 9.91C30.0653 9.91 29.7853 9.966 29.6033 10.092C29.4213 10.218 29.3373 10.4 29.3373 10.61C29.3373 10.848 29.4493 11.016 29.6593 11.128C29.8693 11.24 30.1213 11.338 30.4433 11.408C30.7653 11.492 31.1013 11.576 31.4793 11.646C31.8433 11.73 32.1793 11.856 32.5013 12.024C32.8233 12.192 33.0893 12.416 33.2993 12.71C33.5093 13.004 33.6073 13.396 33.6073 13.9C33.6073 14.222 33.5513 14.516 33.4253 14.782C33.2993 15.048 33.1033 15.286 32.8513 15.482C32.5993 15.692 32.2773 15.846 31.8993 15.958C31.5073 16.084 31.0453 16.14 30.5273 16.14ZM37.5973 16C36.9253 16 36.4073 15.818 36.0433 15.454C35.6793 15.104 35.4973 14.6 35.4973 13.97V10.05H34.3073V8.58H35.4973L35.7073 6.62H37.1073V8.58H38.9273V10.05H37.1073V13.76C37.1073 13.97 37.1773 14.152 37.3173 14.306C37.4433 14.46 37.6393 14.53 37.8773 14.53H38.9273V16H37.5973ZM43.4617 16.14C42.9157 16.14 42.4257 16.056 41.9917 15.874C41.5577 15.706 41.1797 15.454 40.8717 15.132C40.5637 14.81 40.3257 14.404 40.1577 13.928C39.9897 13.452 39.9057 12.906 39.9057 12.29C39.9057 11.674 39.9897 11.128 40.1577 10.652C40.3257 10.176 40.5637 9.77 40.8717 9.448C41.1797 9.126 41.5437 8.874 41.9777 8.692C42.4117 8.524 42.8877 8.44 43.4057 8.44C43.9657 8.44 44.4697 8.538 44.9037 8.734C45.3377 8.93 45.7017 9.196 45.9957 9.518C46.2897 9.854 46.5277 10.246 46.6817 10.68C46.8357 11.128 46.9057 11.59 46.9057 12.08C46.9057 12.178 46.9057 12.276 46.8917 12.36C46.8777 12.444 46.8777 12.514 46.8637 12.584C46.8497 12.654 46.8497 12.724 46.8357 12.78H41.5857C41.6277 13.34 41.8097 13.788 42.1457 14.138C42.4677 14.488 42.9157 14.67 43.4757 14.67C43.8677 14.67 44.1757 14.586 44.4137 14.432C44.6377 14.278 44.8337 14.068 45.0157 13.83H46.7657C46.6677 14.152 46.5137 14.446 46.3317 14.726C46.1497 15.006 45.9117 15.244 45.6457 15.454C45.3797 15.664 45.0577 15.832 44.6937 15.958C44.3297 16.084 43.9237 16.14 43.4617 16.14ZM45.2257 11.52C45.1557 11.058 44.9597 10.68 44.6657 10.372C44.3577 10.064 43.9377 9.91 43.4057 9.91C42.9157 9.91 42.5097 10.05 42.2017 10.344C41.8937 10.638 41.6837 11.03 41.5857 11.52H45.2257ZM51.5268 14.67C51.7928 14.67 52.0308 14.614 52.2688 14.516C52.4928 14.418 52.6888 14.278 52.8708 14.082C53.0388 13.886 53.1788 13.634 53.2768 13.34C53.3748 13.046 53.4168 12.696 53.4168 12.29C53.4168 11.884 53.3748 11.534 53.2768 11.24C53.1788 10.946 53.0388 10.694 52.8708 10.498C52.6888 10.302 52.4928 10.148 52.2688 10.05C52.0308 9.952 51.7928 9.91 51.5268 9.91C51.2608 9.91 51.0228 9.952 50.7988 10.05C50.5608 10.148 50.3648 10.302 50.1968 10.498C50.0148 10.694 49.8888 10.946 49.7908 11.24C49.6928 11.534 49.6368 11.884 49.6368 12.29C49.6368 12.696 49.6928 13.046 49.7908 13.34C49.8888 13.634 50.0148 13.886 50.1968 14.082C50.3648 14.278 50.5608 14.418 50.7988 14.516C51.0228 14.614 51.2608 14.67 51.5268 14.67ZM51.2468 16.14C50.7708 16.14 50.3368 16.056 49.9448 15.888C49.5528 15.72 49.2168 15.468 48.9368 15.146C48.6428 14.824 48.4188 14.432 48.2648 13.942C48.1108 13.466 48.0268 12.92 48.0268 12.29C48.0268 11.66 48.1108 11.114 48.2648 10.624C48.4188 10.148 48.6428 9.742 48.9368 9.42C49.2168 9.098 49.5528 8.86 49.9448 8.692C50.3368 8.524 50.7708 8.44 51.2468 8.44C51.5128 8.44 51.7508 8.468 51.9748 8.524C52.1988 8.594 52.4088 8.664 52.5908 8.762C52.7728 8.86 52.9268 8.972 53.0528 9.084C53.1788 9.21 53.2768 9.322 53.3468 9.42H53.4168V6.2H55.0268V16H53.6968L53.4868 15.09H53.4168C53.2068 15.37 52.9128 15.608 52.5488 15.818C52.1708 16.028 51.7368 16.14 51.2468 16.14ZM64.5479 14.46C64.9819 14.46 65.3319 14.348 65.5839 14.11C65.8219 13.872 65.9479 13.55 65.9479 13.13C65.9479 12.71 65.8219 12.388 65.5839 12.15C65.3319 11.912 64.9819 11.8 64.5479 11.8H61.8879V14.46H64.5479ZM60.1379 6.2H64.6179C65.5699 6.2 66.2979 6.438 66.8019 6.928C67.3059 7.418 67.5579 8.076 67.5579 8.93C67.5579 9.42 67.4319 9.854 67.1939 10.218C66.9559 10.582 66.6479 10.848 66.2979 11.03C66.6899 11.212 67.0259 11.478 67.2919 11.856C67.5579 12.234 67.6979 12.71 67.6979 13.27C67.6979 14.124 67.4459 14.782 66.9419 15.272C66.4379 15.762 65.7099 16 64.7579 16H60.1379V6.2ZM64.4079 10.4C64.8279 10.4 65.1639 10.288 65.4299 10.05C65.6819 9.812 65.8079 9.49 65.8079 9.07C65.8079 8.65 65.6819 8.328 65.4299 8.09C65.1639 7.852 64.8279 7.74 64.4079 7.74H61.8879V10.4H64.4079ZM71.3401 16L68.3301 8.58H70.0801L72.1101 13.83H72.1801L74.2101 8.58H75.9601L71.9001 18.8H70.2201L71.3401 16Z" fill="white"/>
<g clip-path="url(#clip0_5766_8457)">
<path d="M10.5781 34.4102V44.5443C10.6447 46.921 12.6443 48.7916 15.0438 48.7255C17.3544 48.6595 19.2095 46.822 19.2651 44.5443V34.4102C19.2651 32.0664 17.3433 30.1629 14.9771 30.1629H14.966C12.5888 30.1189 10.6226 32.0004 10.5781 34.3552V34.4102ZM13.6886 44.5443V34.4102C13.6774 33.772 14.1996 33.2328 14.8439 33.2328C14.8883 33.2328 14.9216 33.2328 14.966 33.2328C15.5992 33.2218 16.1325 33.717 16.1436 34.3552C16.1436 34.3772 16.1436 34.3992 16.1436 34.4102V44.5443C16.1325 45.1935 15.6104 45.7107 14.955 45.7216C14.2773 45.7546 13.6997 45.2265 13.6663 44.5553" fill="white"/>
<path d="M44.3377 30.3389H35.5508V33.4198H38.3945V48.5274H41.505V33.4198H44.3377V30.3389Z" fill="white"/>
<path d="M53.4913 30.3389V44.5442C53.5136 45.2045 52.9914 45.7436 52.3249 45.7656C51.6584 45.7876 51.1141 45.2704 51.0919 44.6103C51.0919 44.5883 51.0919 44.5662 51.0919 44.5332V30.3389H47.8926V44.5442C48.0037 46.943 50.0588 48.8026 52.4805 48.6925C54.7466 48.5935 56.5684 46.7889 56.6684 44.5442V30.3389H53.4913Z" fill="white"/>
<path d="M81.9415 33.4198V30.3389H74.2544V48.5274H81.9415V45.4575H77.3648V40.7481H80.2863V37.6671H77.3648V33.4198H81.9415Z" fill="white"/>
<path d="M32.6294 48.5279H29.3412L27.0529 39.9342C27.0529 39.9342 29.0636 39.5711 29.0636 37.4915V34.6856C29.0858 34.0034 28.5304 33.4312 27.8416 33.4202H26.5974V48.5279H23.4871V30.3393H27.7972C30.1522 30.3173 32.0962 32.1658 32.1851 34.4985V37.3924C32.1851 39.197 31.5408 40.4624 30.4521 41.3756L32.6294 48.5279Z" fill="white"/>
<path d="M67.2999 30.3389V40.297L64.1007 30.3389H60.9014V48.5274H64.1007V39.6587L67.0223 48.5274H70.4993V30.3389H67.2999Z" fill="white"/>
<path d="M3.34821 30.6145H0.337774H0.0600586V48.803H3.34821V41.0127H6.36976V37.9427H3.34821V33.6954H8.11382V30.6145H3.34821Z" fill="white"/>
<path d="M73.5984 90.3631C73.5763 91.2874 72.8209 92.0136 71.8877 92.0027H66.7667C65.8335 92.0136 65.0781 91.2874 65.0559 90.3631V62.8548C65.1004 61.9305 65.8669 61.2042 66.8 61.2152H71.9322C72.8431 61.2042 73.5874 61.9194 73.5984 62.8217C73.5984 62.8327 73.5984 62.8437 73.5984 62.8548V90.3631ZM73.1208 53.0947H65.5892C60.7236 53.0947 56.78 56.8688 56.78 61.5343V91.3975C56.78 96.0519 60.7236 99.8371 65.6003 99.8371H73.1319C77.9975 99.8371 81.9522 96.0629 81.9522 91.3975V61.5343C81.941 56.8688 77.9864 53.0947 73.1208 53.0947ZM45.2937 90.3631C45.2714 91.2874 44.5049 92.0136 43.5829 92.0027H38.473C37.5399 92.0136 36.7844 91.2874 36.7623 90.3631V62.8548C36.8067 61.9305 37.5842 61.1932 38.5174 61.2152H43.6273C44.5382 61.2042 45.2826 61.9305 45.2937 62.8327V62.8548V90.3631ZM44.8049 53.0947H37.2733C32.4077 53.0947 28.4752 56.8688 28.4752 61.5343V91.3975C28.4752 96.0519 32.4299 99.8371 37.2955 99.8371H44.8271C49.6927 99.8371 53.6473 96.0629 53.6473 91.3975V61.5343C53.6473 56.8799 49.7038 53.0947 44.8271 53.0947H44.8049ZM25.3203 78.4465C25.3203 73.781 21.299 70.0179 16.3334 70.0179H8.73517V61.1932H25.2648V53.0947H0.148193V78.4685H15.067C16.0114 78.4355 16.8 79.1728 16.8333 80.108V90.3631C16.8 91.2874 16.0224 92.0247 15.0782 92.0027H10.4792C9.54609 92.0247 8.75738 91.2874 8.73517 90.3631V83.9262H0.292607V91.3865C0.292607 96.0408 4.32504 99.826 9.27949 99.826H16.3446C21.299 99.826 25.3315 96.0519 25.3315 91.3865L25.3203 78.4465Z" fill="white"/>
</g>
<path d="M5.43781 126.14C4.75181 126.14 4.13581 126.028 3.57581 125.818C3.01581 125.608 2.53981 125.286 2.14781 124.852C1.74181 124.432 1.43381 123.9 1.22381 123.27C0.999813 122.64 0.887813 121.926 0.887813 121.1C0.887813 120.274 0.999813 119.546 1.22381 118.916C1.43381 118.286 1.74181 117.768 2.14781 117.334C2.53981 116.914 3.01581 116.592 3.57581 116.382C4.13581 116.172 4.75181 116.06 5.43781 116.06C5.99781 116.06 6.50181 116.13 6.94981 116.27C7.39781 116.424 7.78981 116.62 8.13981 116.886C8.47581 117.152 8.76981 117.46 9.00781 117.824C9.24581 118.202 9.42781 118.608 9.56781 119.07H7.74781C7.53781 118.608 7.24381 118.258 6.87981 117.992C6.51581 117.726 6.03981 117.6 5.43781 117.6C4.59781 117.6 3.92581 117.894 3.40781 118.482C2.88981 119.07 2.63781 119.938 2.63781 121.1C2.63781 122.262 2.88981 123.13 3.40781 123.718C3.92581 124.306 4.59781 124.6 5.43781 124.6C6.03981 124.6 6.51581 124.474 6.87981 124.208C7.24381 123.942 7.53781 123.592 7.74781 123.13H9.56781C9.28781 124.04 8.81181 124.768 8.13981 125.314C7.45381 125.86 6.55781 126.14 5.43781 126.14ZM15.2405 126.14C14.5545 126.14 13.9245 126.028 13.3785 125.804C12.8185 125.58 12.3425 125.258 11.9365 124.824C11.5305 124.39 11.2225 123.872 11.0125 123.242C10.8025 122.612 10.6905 121.898 10.6905 121.1C10.6905 120.302 10.8025 119.588 11.0125 118.958C11.2225 118.328 11.5305 117.81 11.9365 117.376C12.3425 116.942 12.8185 116.62 13.3785 116.396C13.9245 116.172 14.5545 116.06 15.2405 116.06C15.9265 116.06 16.5425 116.172 17.1025 116.396C17.6625 116.62 18.1385 116.942 18.5445 117.376C18.9505 117.81 19.2585 118.328 19.4685 118.958C19.6785 119.588 19.7905 120.302 19.7905 121.1C19.7905 121.898 19.6785 122.612 19.4685 123.242C19.2585 123.872 18.9505 124.39 18.5445 124.824C18.1385 125.258 17.6625 125.58 17.1025 125.804C16.5425 126.028 15.9265 126.14 15.2405 126.14ZM15.2405 124.6C16.0805 124.6 16.7525 124.306 17.2705 123.718C17.7885 123.13 18.0405 122.262 18.0405 121.1C18.0405 119.938 17.7885 119.07 17.2705 118.482C16.7525 117.894 16.0805 117.6 15.2405 117.6C14.4005 117.6 13.7285 117.894 13.2105 118.482C12.6925 119.07 12.4405 119.938 12.4405 121.1C12.4405 122.262 12.6925 123.13 13.2105 123.718C13.7285 124.306 14.4005 124.6 15.2405 124.6ZM21.4738 116.2H24.0638L26.6538 123.48H26.7238L29.3138 116.2H31.9038V126H30.1538V118.51H30.0838L27.4238 126H25.9538L23.2938 118.51H23.2238V126H21.4738V116.2ZM33.9973 116.2H37.9313C38.4213 116.2 38.8693 116.284 39.2753 116.438C39.6813 116.592 40.0453 116.816 40.3393 117.096C40.6333 117.39 40.8573 117.726 41.0253 118.118C41.1933 118.51 41.2773 118.944 41.2773 119.42C41.2773 119.896 41.1933 120.33 41.0253 120.722C40.8573 121.114 40.6333 121.45 40.3393 121.73C40.0453 122.024 39.6813 122.248 39.2753 122.402C38.8693 122.556 38.4213 122.64 37.9313 122.64H35.7473V126H33.9973V116.2ZM37.7773 121.1C38.3373 121.1 38.7713 120.946 39.0793 120.652C39.3733 120.358 39.5273 119.952 39.5273 119.42C39.5273 118.888 39.3733 118.468 39.0793 118.174C38.7713 117.88 38.3373 117.74 37.7773 117.74H35.7473V121.1H37.7773ZM44.8418 116.2H47.0118L50.5818 126H48.7618L48.0058 123.9H43.8478L43.0918 126H41.2718L44.8418 116.2ZM47.4598 122.36L45.9618 118.16H45.8918L44.3938 122.36H47.4598ZM51.5656 116.2H53.8756L58.0756 123.55H58.1456V116.2H59.8956V126H57.5856L53.3856 118.65H53.3156V126H51.5656V116.2ZM61.9973 116.2H63.7473V126H61.9973V116.2ZM65.8527 116.2H72.2927V117.74H67.6027V120.33H72.0127V121.8H67.6027V124.46H72.4327V126H65.8527V116.2ZM77.3989 126.14C76.3489 126.14 75.4809 125.888 74.7949 125.384C74.1089 124.88 73.6889 124.152 73.5489 123.2H75.2989C75.4109 123.648 75.6489 123.998 76.0129 124.236C76.3769 124.474 76.8389 124.6 77.3989 124.6C78.0989 124.6 78.6169 124.474 78.9389 124.208C79.2609 123.956 79.4289 123.62 79.4289 123.2C79.4289 122.934 79.3449 122.71 79.1909 122.542C79.0369 122.388 78.8269 122.248 78.5749 122.15C78.3089 122.052 78.0149 121.954 77.6929 121.884C77.3569 121.814 77.0209 121.744 76.6709 121.66C76.3209 121.576 75.9709 121.478 75.6489 121.352C75.3129 121.226 75.0189 121.058 74.7669 120.848C74.5009 120.638 74.2909 120.386 74.1369 120.064C73.9829 119.742 73.8989 119.35 73.8989 118.86C73.8989 118.426 73.9829 118.034 74.1509 117.684C74.3189 117.334 74.5569 117.04 74.8649 116.802C75.1729 116.564 75.5369 116.368 75.9709 116.242C76.4049 116.116 76.8809 116.06 77.3989 116.06C78.4769 116.06 79.3309 116.298 79.9329 116.788C80.5349 117.278 80.8989 117.922 81.0389 118.72H79.2889C79.1909 118.37 78.9809 118.09 78.6729 117.894C78.3509 117.698 77.9309 117.6 77.3989 117.6C76.7969 117.6 76.3629 117.726 76.0829 117.964C75.7889 118.202 75.6489 118.51 75.6489 118.86C75.6489 119.238 75.7889 119.518 76.0689 119.7C76.3349 119.896 76.6849 120.05 77.1049 120.162C77.5109 120.288 77.9589 120.4 78.4489 120.498C78.9389 120.61 79.3869 120.764 79.8069 120.96C80.2129 121.156 80.5629 121.422 80.8429 121.772C81.1089 122.122 81.2489 122.598 81.2489 123.2C81.2489 123.606 81.1649 123.984 80.9969 124.334C80.8149 124.698 80.5629 125.006 80.2409 125.272C79.9189 125.538 79.5129 125.748 79.0369 125.902C78.5609 126.056 78.0149 126.14 77.3989 126.14Z" fill="white"/>
<defs>
<clipPath id="clip0_5766_8457">
<rect width="82" height="70" fill="white" transform="translate(0 30)"/>
</clipPath>
</defs>
</svg>
